<mxfile host="www.draw.io" modified="2019-12-21T00:49:49.063Z" agent="Mozilla/5.0 (Macintosh; Intel Mac OS X 10_13_6) AppleWebKit/537.36 (KHTML, like Gecko) Chrome/79.0.3945.79 Safari/537.36" etag="EGPzofLRrv96jR4O9JSQ" version="12.4.3" type="github" pages="1">
  <diagram id="JqPvzdZQA5ajRBHI8yrV" name="Page-1">
    <mxGraphModel dx="1186" dy="686" grid="1" gridSize="10" guides="1" tooltips="1" connect="1" arrows="1" fold="1" page="1" pageScale="1" pageWidth="827" pageHeight="1169" math="0" shadow="0">
      <root>
        <mxCell id="0"/>
        <mxCell id="1" parent="0"/>
        <mxCell id="ZfdYoAjNMy2BQfxZGGwY-3" value="" style="group" parent="1" vertex="1" connectable="0">
          <mxGeometry x="80" y="250" width="170" height="240" as="geometry"/>
        </mxCell>
        <mxCell id="ZfdYoAjNMy2BQfxZGGwY-1" value="" style="rounded=1;whiteSpace=wrap;html=1;" parent="ZfdYoAjNMy2BQfxZGGwY-3" vertex="1">
          <mxGeometry width="170" height="220" as="geometry"/>
        </mxCell>
        <mxCell id="o9KLlf289_FCoUb2ZYAq-1" value="智能合约" style="shape=image;verticalLabelPosition=bottom;labelBackgroundColor=#ffffff;verticalAlign=top;aspect=fixed;imageAspect=0;image=data:image/svg+xml,PHN2ZyB4bWxuczpjYz0iaHR0cDovL2NyZWF0aXZlY29tbW9ucy5vcmcvbnMjIiB4bWxuczpkYz0iaHR0cDovL3B1cmwub3JnL2RjL2VsZW1lbnRzLzEuMS8iIHhtbG5zOmlua3NjYXBlPSJodHRwOi8vd3d3Lmlua3NjYXBlLm9yZy9uYW1lc3BhY2VzL2lua3NjYXBlIiB4bWxuczpyZGY9Imh0dHA6Ly93d3cudzMub3JnLzE5OTkvMDIvMjItcmRmLXN5bnRheC1ucyMiIHhtbG5zOnNvZGlwb2RpPSJodHRwOi8vc29kaXBvZGkuc291cmNlZm9yZ2UubmV0L0RURC9zb2RpcG9kaS0wLmR0ZCIgeG1sbnM6c3ZnPSJodHRwOi8vd3d3LnczLm9yZy8yMDAwL3N2ZyIgeG1sbnM9Imh0dHA6Ly93d3cudzMub3JnLzIwMDAvc3ZnIiB4bWxuczp4bGluaz0iaHR0cDovL3d3dy53My5vcmcvMTk5OS94bGluayIgdmVyc2lvbj0iMS4xIiBpZD0ic3ZnNjYxODciIGlua3NjYXBlOnZlcnNpb249IjAuOTIuMyAoMjQwNTU0NiwgMjAxOC0wMy0xMSkiIHNvZGlwb2RpOmRvY25hbWU9ImNvbmZpZ3VyYXRpb25zLnN2ZyIgeD0iMHB4IiB5PSIwcHgiIHZpZXdCb3g9IjAgMCA0Ni41IDQ2LjY0IiBzdHlsZT0iZW5hYmxlLWJhY2tncm91bmQ6bmV3IDAgMCA0Ni41IDQ2LjY0OyIgeG1sOnNwYWNlPSJwcmVzZXJ2ZSI+JiN4YTs8c29kaXBvZGk6bmFtZWR2aWV3IGJvcmRlcmNvbG9yPSIjNjY2NjY2IiBib3JkZXJvcGFjaXR5PSIxIiBmaXQtbWFyZ2luLWJvdHRvbT0iMCIgZml0LW1hcmdpbi1sZWZ0PSIwIiBmaXQtbWFyZ2luLXJpZ2h0PSIwIiBmaXQtbWFyZ2luLXRvcD0iMCIgZ3JpZHRvbGVyYW5jZT0iMTAiIGd1aWRldG9sZXJhbmNlPSIxMCIgaWQ9Im5hbWVkdmlldzY2MTg5IiBpbmtzY2FwZTpjdXJyZW50LWxheWVyPSJzdmc2NjE4NyIgaW5rc2NhcGU6Y3g9IjMxLjAwMzYxMiIgaW5rc2NhcGU6Y3k9IjMxLjA4MTY3NyIgaW5rc2NhcGU6cGFnZW9wYWNpdHk9IjAiIGlua3NjYXBlOnBhZ2VzaGFkb3c9IjIiIGlua3NjYXBlOndpbmRvdy1oZWlnaHQ9IjEwMTciIGlua3NjYXBlOndpbmRvdy1tYXhpbWl6ZWQ9IjEiIGlua3NjYXBlOndpbmRvdy13aWR0aD0iMTkyMCIgaW5rc2NhcGU6d2luZG93LXg9Ii04IiBpbmtzY2FwZTp3aW5kb3cteT0iLTgiIGlua3NjYXBlOnpvb209IjEzLjUxMDk3NiIgb2JqZWN0dG9sZXJhbmNlPSIxMCIgcGFnZWNvbG9yPSIjZmZmZmZmIiBzaG93Z3JpZD0iZmFsc2UiPiYjeGE7CTwvc29kaXBvZGk6bmFtZWR2aWV3PiYjeGE7PGcgaWQ9Imc2NjE4NSIgdHJhbnNmb3JtPSJ0cmFuc2xhdGUoLTAuNzQ3MzAxNjksLTAuNzM5Mjk2KSI+JiN4YTsJPHRpdGxlIGlkPSJ0aXRsZTY2MTYwIj5QYWdlLTE8L3RpdGxlPiYjeGE7CTxnIGlkPSJncm91cDUwNjAtMSIgdHJhbnNmb3JtPSJ0cmFuc2xhdGUoMS41MDAwNCwtMS40OTI1NCkiPiYjeGE7CQk8dGl0bGUgaWQ9InRpdGxlNjYxNjIiPkNvbmZpZ3VyYXRpb25zPC90aXRsZT4mI3hhOwkJPGcgaWQ9InNoYXBlNTA2MS0yIj4mI3hhOwkJCTx0aXRsZSBpZD0idGl0bGU2NjE2NCI+cGF0aDE1MTQwPC90aXRsZT4mI3hhOwkJCSYjeGE7CQkJCTxwYXRoIGlkPSJwYXRoNjYxNjYiIGlua3NjYXBlOmNvbm5lY3Rvci1jdXJ2YXR1cmU9IjAiIHN0eWxlPSJmaWxsOiNGRkZGRkY7c3Ryb2tlOiM1NTZBOEE7c3Ryb2tlLXdpZHRoOjEuNTtzdHJva2UtbWl0ZXJsaW1pdDozOyIgZD0iICAgICBNMC44MywyNy41TDQuMTgsMjhjMC4wNSwwLjc2LDAuMTcsMS41MSwwLjM1LDIuMjVsLTIuNzcsMS44MWMtMC40NiwwLjE3LTAuNjksMC42Ny0wLjUyLDEuMTNjMC4wMSwwLjAyLDAuMDIsMC4wNSwwLjAzLDAuMDcgICAgIGwwLjgzLDIuMDJjMC4xNiwwLjM4LDAuNTksMC41NywwLjk4LDAuNDFjMC4wMy0wLjAxLDAuMDctMC4wMywwLjEtMC4wNWwzLjM3LTAuN2wxLjA2LDEuODNMNS42NywzOS40ICAgICBjLTAuMzEsMC4zNC0wLjMxLDAuODYsMCwxLjJsMS42NiwxLjY5YzAuMzYsMC4yNCwwLjg0LDAuMjQsMS4yLDBsMi42NS0xLjg5YzAuNiwwLjM2LDEuMzIsMC44NCwxLjkxLDEuMmwtMC43NSwzLjM2ICAgICBjLTAuMSwwLjM5LDAuMDksMC44LDAuNDcsMC45N2wyLjA1LDAuODRjMC4zNSwwLjIyLDAuODEsMC4xMSwxLjAzLTAuMjRjMC4wMi0wLjAzLDAuMDQtMC4wNywwLjA1LTAuMWwxLjgyLTIuOTkgICAgIGMwLjY5LDAuMjgsMS40MSwwLjQ1LDIuMTUsMC41bDAuNDcsMy4zNGMtMC4wMSwwLjQ2LDAuMzUsMC44MywwLjgsMC44NWMwLjAxLDAsMC4wMiwwLDAuMDMsMGwyLjI1LTAuMTEgICAgIGMwLjM2LDAuMTIsMC43NS0wLjI0LDAuODQtMC41OWwwLjYzLTMuNDhjMC43NS0wLjAzLDEuNDktMC4xNywyLjE5LTAuNDJsMS43OCwzYzAuMjcsMC4zLDAuNjgsMC40NCwxLjA4LDAuMzdsMi4xNi0wLjk0ICAgICBjMC4zOC0wLjE1LDAuNTgtMC41NiwwLjQ5LTAuOTVsLTAuODItMy4yNmMwLjE2LTAuMSwwLjMxLTAuMiwwLjQ2LTAuMzJjMC4xLTAuMDYsMC4yLTAuMTQsMC4zLTAuMjIgICAgIGMwLjM1LTAuMjYsMC43MS0wLjU2LDEuMDUtMC43NWwyLjc1LDIuMDVjMC4zMiwwLjI3LDAuNzksMC4yMywxLjA2LTAuMDhjMC4wMS0wLjAxLDAuMDItMC4wMiwwLjAyLTAuMDNsMS0wLjk5bDAuNTYtMC41NiAgICAgYzAuMzItMC4yNiwwLjM3LTAuNzMsMC4xMS0xLjA2YzAsMCwwLDAsMCwwbC0yLjAyLTIuNzdjMC41My0wLjYyLDAuOTgtMS4zMSwxLjM0LTIuMDRsMy4zNCwwLjk4YzAuNDksMC4wNiwwLjk1LTAuMjIsMS4xMi0wLjY4ICAgICBsMC44NS0yLjA0YzAuMTQtMC40Ni0wLjA2LTAuOTYtMC40Ny0xLjJsLTIuODctMS43YzAuMjUtMC43NSwwLjI1LTEuNDQsMC40OS0yLjE1bDMuMzUtMC40MWMwLjQzLTAuMTMsMC43My0wLjUxLDAuNzUtMC45NiAgICAgdi0yLjE2YzAtMC40NC0wLjI4LTAuODMtMC43LTAuOTdsLTMuNDktMC40MWMtMC4wOC0wLjgxLTAuMjMtMS42MS0wLjQ1LTIuNGwzLTEuNzhjMC4zOS0wLjE1LDAuNTgtMC41OCwwLjQzLTAuOTcgICAgIGMtMC4wMS0wLjA0LTAuMDMtMC4wNy0wLjA1LTAuMTFsLTAuODMtMi4wNGMtMC4yLTAuNC0wLjYyLTAuNjQtMS4wNy0wLjYxbC0zLjM4LDAuOTRjLTAuMzUtMC42LTAuNy0xLjIxLTEuMDYtMS44MWwyLjA2LTIuNzQgICAgIGMwLjE1LTAuMzYsMC4xMS0wLjc3LTAuMTItMS4wOGwtMS42Ni0xLjY1Yy0wLjI5LTAuMjgtMC43My0wLjMzLTEuMDctMC4xM2wtMi43OCwyLjAxYy0wLjYtMC4zOC0xLjMxLTAuODYtMS45MS0xLjIybDAuNzUtMy4zNiAgICAgYzAuMTEtMC4zOS0wLjA5LTAuOC0wLjQ3LTAuOTZMMzAsNC4zOWMtMC40LTAuMTEtMC44MywwLjAyLTEuMDksMC4zNWwtMS42NiwyLjg4Yy0wLjc1LDAtMS40NC0wLjI1LTIuMTYtMC4yNmwtMC4zNC0zLjQ4ICAgICBjLTAuMTMtMC40My0wLjUxLTAuNzMtMC45Ni0wLjc1bC0yLjI1LTAuMTRjLTAuMzksMC4xNC0wLjcsMC40NC0wLjg0LDAuODNsLTAuNTEsMy4zN2MtMC44NCwwLjExLTEuNTYsMC4zNS0yLjQsMC40NWwtMS42OC0yLjg1ICAgICBDMTUuOSw0LjM4LDE1LjQxLDQuMjIsMTUsNC40MmwtMi4wMSwwLjg1Yy0wLjQzLDAuMTYtMC42OCwwLjYtMC42MSwxLjA1bDAuODIsMy4yNWMtMC42NiwwLjM1LTEuMjcsMC43OS0xLjgxLDEuMzFMOC42NCw4LjgyICAgICBjLTAuMjktMC4zMy0wLjgtMC4zNy0xLjEzLTAuMDhDNy40OCw4Ljc3LDcuNDYsOC43OSw3LjQzLDguODJMNiwxMC4yNWwtMC4xMywwLjEyYy0wLjMzLDAuMzEtMC4zNSwwLjgyLTAuMDQsMS4xNiAgICAgYzAuMDEsMC4wMiwwLjAzLDAuMDMsMC4wNCwwLjA0bDIuMDIsMi43N2MtMC40MiwwLjQtMC43NiwwLjg3LTEuMDMsMS4zOWwtMC4wOSwwLjE2Yy0wLjA3LDAuMTUtMC4xNSwwLjMxLTAuMjIsMC40OEwzLjIsMTUuMzkgICAgIGMtMC4zOS0wLjEtMC43OSwwLjEtMC45NSwwLjQ2bC0wLjk5LDIuMTdjLTAuMDcsMC40LDAuMDYsMC44MSwwLjM1LDEuMDlsMywxLjgyYy0wLjI1LDAuNjUtMC4zNywxLjM0LTAuMzgsMi4wNGwtMy40OCwwLjU2ICAgICBDMC40LDIzLjY2LDAsMjQuMDEsMCwyNC4yOHYyLjRjMCwwLjQ1LDAuMzUsMC44MSwwLjgsMC44MkMwLjgxLDI3LjUsMC44MiwyNy41LDAuODMsMjcuNUwwLjgzLDI3LjV6Ii8+JiN4YTsJCTwvZz4mI3hhOwkJPGcgaWQ9InNoYXBlNTA2Mi00IiB0cmFuc2Zvcm09InRyYW5zbGF0ZSgxMS4yNSwtMjAuMzUzNikiPiYjeGE7CQkJPHRpdGxlIGlkPSJ0aXRsZTY2MTY5Ij5wYXRoMTUxNDI8L3RpdGxlPiYjeGE7CQkJJiN4YTsJCQkJPHBhdGggaWQ9InBhdGg2NjE3MSIgaW5rc2NhcGU6Y29ubmVjdG9yLWN1cnZhdHVyZT0iMCIgc3R5bGU9ImZpbGw6I0ZGRkZGRjtzdHJva2U6IzJCQzdGNDtzdHJva2Utd2lkdGg6MS41O3N0cm9rZS1taXRlcmxpbWl0OjM7IiBkPSIgICAgIE0wLjg3LDQxLjZjMi40LTUuNzMsOC45OS04LjQ0LDE0LjcyLTYuMDRjNS43MywyLjQsOC40NCw4Ljk5LDYuMDQsMTQuNzJzLTguOTksOC40NC0xNC43Miw2LjA0QzIuNzQsNTQuNTgsMC4wMiw1MC41MSwwLDQ1Ljk5ICAgICBDLTAuMDEsNDQuNDgsMC4yOSw0Mi45OSwwLjg3LDQxLjZ6Ii8+JiN4YTsJCTwvZz4mI3hhOwkJPGcgaWQ9InNoYXBlNTA2My02IiB0cmFuc2Zvcm09InRyYW5zbGF0ZSgxNi4wNDQ5LC0xNS42OTQ5KSI+JiN4YTsJCQk8dGl0bGUgaWQ9InRpdGxlNjYxNzQiPnBhdGgxNTE0NDwvdGl0bGU+JiN4YTsJCQk8cGF0aCBpZD0icGF0aDY2MTc2IiBpbmtzY2FwZTpjb25uZWN0b3ItY3VydmF0dXJlPSIwIiBzdHlsZT0iZmlsbDojNTU2QThBOyIgZD0iTTEzLjM1LDM2LjNsLTIuMTIsMi4xM2wtMS44LDAuMzFsMC4yMS0xLjkxICAgICBsMi4xMi0yLjEyYy0xLjI5LTAuNS0yLjc1LTAuMjYtMy44MiwwLjYzYy0wLjg5LDEtMS4wNywyLjQ1LTAuNDMsMy42M2wtNy4yNiw3LjI2Yy0wLjM4LDAuNDYtMC4zMywxLjE0LDAuMTMsMS41MiAgICAgYzAuMDEsMC4wMSwwLjAxLDAuMDEsMC4wMiwwLjAyYzAuMzMsMC40MSwwLjkyLDAuNDgsMS4zMywwLjE1YzAuMDQtMC4wMywwLjA3LTAuMDYsMC4xLTAuMWw3LjI3LTcuMjYgICAgIGMxLjE3LDAuNjMsMi42MiwwLjQ1LDMuNjEtMC40M0MxMy42LDM5LjA2LDEzLjg1LDM3LjYsMTMuMzUsMzYuM3oiLz4mI3hhOwkJPC9nPiYjeGE7CQk8ZyBpZD0ic2hhcGU1MDY0LTgiIHRyYW5zZm9ybT0idHJhbnNsYXRlKDE1LC0xNS4zOTc0KSI+JiN4YTsJCQk8dGl0bGUgaWQ9InRpdGxlNjYxNzkiPnBhdGgxNTE0NjwvdGl0bGU+JiN4YTsJCQk8cGF0aCBpZD0icGF0aDY2MTgxIiBpbmtzY2FwZTpjb25uZWN0b3ItY3VydmF0dXJlPSIwIiBzdHlsZT0iZmlsbDojMkJDN0Y0OyIgZD0iTTcuMDQsNDAuODZsLTIuOC0yLjhsLTAuNTMtMS41OWwtMi42NS0xLjU5ICAgICBMMCwzNS45M2wxLjU5LDIuNjZsMS41OSwwLjUzTDYsNDEuOTJjLTAuMTQsMC41MSwwLjAxLDEuMDYsMC4zOCwxLjQ0bDQuNzcsNC43N2MwLjU5LDAuNTksMS41NCwwLjU4LDIuMTMsMCAgICAgYzAuNTktMC41OSwwLjU4LTEuNTQsMC0yLjEzYzAsMCwwLDAsMCwwTDguNSw0MS4yM0M4LjEyLDQwLjg1LDcuNTYsNDAuNzEsNy4wNCw0MC44NnoiLz4mI3hhOwkJPC9nPiYjeGE7CTwvZz4mI3hhOzwvZz4mI3hhOzwvc3ZnPg==;" parent="ZfdYoAjNMy2BQfxZGGwY-3" vertex="1">
          <mxGeometry x="63.5" y="120" width="47" height="47" as="geometry"/>
        </mxCell>
        <mxCell id="o9KLlf289_FCoUb2ZYAq-3" value="" style="shape=image;verticalLabelPosition=bottom;labelBackgroundColor=#ffffff;verticalAlign=top;aspect=fixed;imageAspect=0;image=data:image/svg+xml,PHN2ZyB4bWxuczpkYz0iaHR0cDovL3B1cmwub3JnL2RjL2VsZW1lbnRzLzEuMS8iIHhtbG5zOmNjPSJodHRwOi8vY3JlYXRpdmVjb21tb25zLm9yZy9ucyMiIHhtbG5zOnJkZj0iaHR0cDovL3d3dy53My5vcmcvMTk5OS8wMi8yMi1yZGYtc3ludGF4LW5zIyIgeG1sbnM6c3ZnPSJodHRwOi8vd3d3LnczLm9yZy8yMDAwL3N2ZyIgeG1sbnM9Imh0dHA6Ly93d3cudzMub3JnLzIwMDAvc3ZnIiB4bWxuczp4bGluaz0iaHR0cDovL3d3dy53My5vcmcvMTk5OS94bGluayIgeG1sbnM6c29kaXBvZGk9Imh0dHA6Ly9zb2RpcG9kaS5zb3VyY2Vmb3JnZS5uZXQvRFREL3NvZGlwb2RpLTAuZHRkIiB4bWxuczppbmtzY2FwZT0iaHR0cDovL3d3dy5pbmtzY2FwZS5vcmcvbmFtZXNwYWNlcy9pbmtzY2FwZSIgdmVyc2lvbj0iMS4xIiBpZD0iTGF5ZXJfMSIgeD0iMHB4IiB5PSIwcHgiIHZpZXdCb3g9IjAgMCAzMS40NDAwMDEgMzMuNzAzNzQzIiB4bWw6c3BhY2U9InByZXNlcnZlIiBzb2RpcG9kaTpkb2NuYW1lPSJzYXBfc2Vfb2RhdGFfcHJvdmlzaW9uaW5nLnN2ZyIgd2lkdGg9IjMxLjQ0MDAwMSIgaGVpZ2h0PSIzMy43MDM3NDMiIGlua3NjYXBlOnZlcnNpb249IjAuOTIuMyAoMjQwNTU0NiwgMjAxOC0wMy0xMSkiPjxtZXRhZGF0YSBpZD0ibWV0YWRhdGE1OTkxNCI+PHJkZjpSREY+PGNjOldvcmsgcmRmOmFib3V0PSIiPjxkYzpmb3JtYXQ+aW1hZ2Uvc3ZnK3htbDwvZGM6Zm9ybWF0PjxkYzp0eXBlIHJkZjpyZXNvdXJjZT0iaHR0cDovL3B1cmwub3JnL2RjL2RjbWl0eXBlL1N0aWxsSW1hZ2UiLz48ZGM6dGl0bGUvPjwvY2M6V29yaz48L3JkZjpSREY+PC9tZXRhZGF0YT48ZGVmcyBpZD0iZGVmczU5OTEyIi8+PHNvZGlwb2RpOm5hbWVkdmlldyBwYWdlY29sb3I9IiNmZmZmZmYiIGJvcmRlcmNvbG9yPSIjNjY2NjY2IiBib3JkZXJvcGFjaXR5PSIxIiBvYmplY3R0b2xlcmFuY2U9IjEwIiBncmlkdG9sZXJhbmNlPSIxMCIgZ3VpZGV0b2xlcmFuY2U9IjEwIiBpbmtzY2FwZTpwYWdlb3BhY2l0eT0iMCIgaW5rc2NhcGU6cGFnZXNoYWRvdz0iMiIgaW5rc2NhcGU6d2luZG93LXdpZHRoPSIxOTIwIiBpbmtzY2FwZTp3aW5kb3ctaGVpZ2h0PSIxMDE3IiBpZD0ibmFtZWR2aWV3NTk5MTAiIHNob3dncmlkPSJmYWxzZSIgZml0LW1hcmdpbi10b3A9IjAiIGZpdC1tYXJnaW4tbGVmdD0iMCIgZml0LW1hcmdpbi1yaWdodD0iMCIgZml0LW1hcmdpbi1ib3R0b209IjAiIGlua3NjYXBlOnpvb209IjEuMDMwMzAzIiBpbmtzY2FwZTpjeD0iLTE4LjEyNSIgaW5rc2NhcGU6Y3k9Ii0xODUuNzg2MjYiIGlua3NjYXBlOndpbmRvdy14PSItOCIgaW5rc2NhcGU6d2luZG93LXk9Ii04IiBpbmtzY2FwZTp3aW5kb3ctbWF4aW1pemVkPSIxIiBpbmtzY2FwZTpjdXJyZW50LWxheWVyPSJMYXllcl8xIi8+JiN4YTsmI3hhOzxnIGlkPSJnNTk5MDciIHRyYW5zZm9ybT0idHJhbnNsYXRlKC0zMTUuNSwtMjAxLjI2KSI+JiN4YTsJPGRlZnMgaWQ9ImRlZnM1OTg3OCI+JiN4YTsJCTxyZWN0IGlkPSJTVkdJRF8zXyIgeD0iMzE1LjUiIHk9IjIwMS4yNTk5OSIgd2lkdGg9IjMzLjk4IiBoZWlnaHQ9IjMzLjk5MDAwMiIvPiYjeGE7CTwvZGVmcz4mI3hhOwk8Y2xpcFBhdGggaWQ9IlNWR0lEXzRfIj4mI3hhOwkJPHVzZSB4bGluazpocmVmPSIjU1ZHSURfM18iIHN0eWxlPSJvdmVyZmxvdzp2aXNpYmxlIiBpZD0idXNlNTk4ODAiIHg9IjAiIHk9IjAiIHdpZHRoPSIxMDAlIiBoZWlnaHQ9IjEwMCUiLz4mI3hhOwk8L2NsaXBQYXRoPiYjeGE7CTxnIGNsaXAtcGF0aD0idXJsKCNTVkdJRF80XykiIGlkPSJnNTk5MDUiPiYjeGE7CQk8ZGVmcyBpZD0iZGVmczU5ODg0Ij4mI3hhOwkJCTxyZWN0IGlkPSJTVkdJRF81XyIgeD0iMzE1LjUiIHk9IjIwMS4yNTk5OSIgd2lkdGg9IjMzLjk5MDAwMiIgaGVpZ2h0PSIzMy45OTAwMDIiLz4mI3hhOwkJPC9kZWZzPiYjeGE7CQk8Y2xpcFBhdGggaWQ9IlNWR0lEXzZfIj4mI3hhOwkJCTx1c2UgeGxpbms6aHJlZj0iI1NWR0lEXzVfIiBzdHlsZT0ib3ZlcmZsb3c6dmlzaWJsZSIgaWQ9InVzZTU5ODg2IiB4PSIwIiB5PSIwIiB3aWR0aD0iMTAwJSIgaGVpZ2h0PSIxMDAlIi8+JiN4YTsJCTwvY2xpcFBhdGg+JiN4YTsJCTxwYXRoIHN0eWxlPSJmaWxsOiMwMDkyZDEiIGQ9Im0gMzM1LjE0LDIwMS4yNiBoIDEwLjEyIGMgMC45LDAgMS42OCwwLjc4IDEuNjgsMS42OCB2IDEuMTQgYyAwLDAuOSAtMC43OCwxLjY4IC0xLjY4LDEuNjggaCAtMTAuMTIgYyAtMC45LDAgLTEuNjgsLTAuNzggLTEuNjgsLTEuNjggdiAtMS4xNCBjIDAuMDEsLTAuOSAwLjc5LC0xLjY4IDEuNjgsLTEuNjggeiIgY2xpcC1wYXRoPSJ1cmwoI1NWR0lEXzZfKSIgaWQ9InBhdGg1OTg4OSIgaW5rc2NhcGU6Y29ubmVjdG9yLWN1cnZhdHVyZT0iMCIvPiYjeGE7CQk8cGF0aCBzdHlsZT0iZmlsbDojMDA5MmQxIiBkPSJtIDMzNS4xNCwyMDguMDMgaCAxMC4xMiBjIDAuOSwwIDEuNjgsMC43MiAxLjY4LDEuNjggdiAxLjA4IGMgMCwwLjk2IC0wLjc4LDEuNzQgLTEuNjgsMS43NCBoIC0xMC4xMiBjIC0wLjksMCAtMS42OCwtMC43OCAtMS42OCwtMS43NCB2IC0xLjA4IGMgMC4wMSwtMC45NiAwLjc5LC0xLjY4IDEuNjgsLTEuNjggeiIgY2xpcC1wYXRoPSJ1cmwoI1NWR0lEXzZfKSIgaWQ9InBhdGg1OTg5MSIgaW5rc2NhcGU6Y29ubmVjdG9yLWN1cnZhdHVyZT0iMCIvPiYjeGE7CQk8cGF0aCBzdHlsZT0iZmlsbDojMDA5MmQxIiBkPSJtIDMzNS4xNCwyMTQuNzQgaCAxMC4xMiBjIDAuOSwwIDEuNjgsMC43OCAxLjY4LDEuNjggdiAxLjE0IGMgMCwwLjkgLTAuNzgsMS42OCAtMS42OCwxLjY4IGggLTEwLjEyIGMgLTAuOSwwIC0xLjY4LC0wLjc4IC0xLjY4LC0xLjY4IHYgLTEuMTQgYyAwLjAxLC0wLjkgMC43OSwtMS42OCAxLjY4LC0xLjY4IHoiIGNsaXAtcGF0aD0idXJsKCNTVkdJRF82XykiIGlkPSJwYXRoNTk4OTMiIGlua3NjYXBlOmNvbm5lY3Rvci1jdXJ2YXR1cmU9IjAiLz4mI3hhOwkJPHBhdGggc3R5bGU9ImZpbGw6IzAwOTJkMSIgZD0ibSAzMzUuMTQsMjIxLjUxIGggMTAuMTIgYyAwLjksMCAxLjY4LDAuNzIgMS42OCwxLjY4IHYgMS4wOCBjIDAsMC45NiAtMC43OCwxLjc0IC0xLjY4LDEuNzQgaCAtMTAuMTIgYyAtMC45LDAgLTEuNjgsLTAuNzggLTEuNjgsLTEuNzQgdiAtMS4wOCBjIDAuMDEsLTAuOTYgMC43OSwtMS42OCAxLjY4LC0xLjY4IHoiIGNsaXAtcGF0aD0idXJsKCNTVkdJRF82XykiIGlkPSJwYXRoNTk4OTUiIGlua3NjYXBlOmNvbm5lY3Rvci1jdXJ2YXR1cmU9IjAiLz4mI3hhOwkJPHBhdGggc3R5bGU9ImZpbGw6IzAwOTJkMSIgZD0ibSAzMTcuMTgsMjE0Ljc0IGggMTAuMTIgYyAwLjksMCAxLjY4LDAuNzggMS42OCwxLjY4IHYgMS4xNCBjIDAsMC45IC0wLjc4LDEuNjggLTEuNjgsMS42OCBoIC0xMC4xMiBjIC0wLjksMCAtMS42OCwtMC43OCAtMS42OCwtMS42OCB2IC0xLjE0IGMgMCwtMC45IDAuNzgsLTEuNjggMS42OCwtMS42OCB6IiBjbGlwLXBhdGg9InVybCgjU1ZHSURfNl8pIiBpZD0icGF0aDU5ODk3IiBpbmtzY2FwZTpjb25uZWN0b3ItY3VydmF0dXJlPSIwIi8+JiN4YTsJCTxwYXRoIHN0eWxlPSJmaWxsOiMwMDkyZDEiIGQ9Im0gMzE3LjE4LDIwOC4wMyBoIDEwLjEyIGMgMC45LDAgMS42OCwwLjcyIDEuNjgsMS42OCB2IDEuMDggYyAwLDAuOTYgLTAuNzgsMS43NCAtMS42OCwxLjc0IGggLTEwLjEyIGMgLTAuOSwwIC0xLjY4LC0wLjc4IC0xLjY4LC0xLjc0IHYgLTEuMDggYyAwLC0wLjk2IDAuNzgsLTEuNjggMS42OCwtMS42OCB6IiBjbGlwLXBhdGg9InVybCgjU1ZHSURfNl8pIiBpZD0icGF0aDU5ODk5IiBpbmtzY2FwZTpjb25uZWN0b3ItY3VydmF0dXJlPSIwIi8+JiN4YTsJCTxwYXRoIHN0eWxlPSJmaWxsOiMwMDkyZDEiIGQ9Im0gMzE3LjE4LDIwMS4yNiBoIDEwLjEyIGMgMC45LDAgMS42OCwwLjc4IDEuNjgsMS42OCB2IDEuMTQgYyAwLDAuOSAtMC43OCwxLjY4IC0xLjY4LDEuNjggaCAtMTAuMTIgYyAtMC45LDAgLTEuNjgsLTAuNzggLTEuNjgsLTEuNjggdiAtMS4xNCBjIDAsLTAuOSAwLjc4LC0xLjY4IDEuNjgsLTEuNjggeiIgY2xpcC1wYXRoPSJ1cmwoI1NWR0lEXzZfKSIgaWQ9InBhdGg1OTkwMSIgaW5rc2NhcGU6Y29ubmVjdG9yLWN1cnZhdHVyZT0iMCIvPiYjeGE7CQk8cGF0aCBzdHlsZT0iZmlsbDojNWE3YTk0IiBkPSJtIDMyMi4yNywyMjEuNTEgYyAtNi4wNSwwIC05LjA0LDcuMjUgLTQuNzksMTEuNSA0LjI1LDQuMTkgMTEuNSwxLjIgMTEuNSwtNC43OSAwLC0zLjcyIC0zLC02LjcxIC02LjcxLC02LjcxIHogbSAwLDIuMjEgYyAzLjk1LDAgNS45OSw0Ljg1IDMuMTcsNy42NyAtMi44NywyLjgyIC03LjY3LDAuODQgLTcuNjcsLTMuMTcgMC4wMSwtMi40NiAxLjk4LC00LjUgNC41LC00LjUgeiIgY2xpcC1wYXRoPSJ1cmwoI1NWR0lEXzZfKSIgaWQ9InBhdGg1OTkwMyIgaW5rc2NhcGU6Y29ubmVjdG9yLWN1cnZhdHVyZT0iMCIvPiYjeGE7CTwvZz4mI3hhOzwvZz4mI3hhOzwvc3ZnPg==;" parent="ZfdYoAjNMy2BQfxZGGwY-3" vertex="1">
          <mxGeometry x="24.5" y="60" width="31" height="34" as="geometry"/>
        </mxCell>
        <mxCell id="o9KLlf289_FCoUb2ZYAq-4" value="" style="shape=image;verticalLabelPosition=bottom;labelBackgroundColor=#ffffff;verticalAlign=top;aspect=fixed;imageAspect=0;image=data:image/svg+xml,PHN2ZyB4bWxuczpkYz0iaHR0cDovL3B1cmwub3JnL2RjL2VsZW1lbnRzLzEuMS8iIHhtbG5zOmNjPSJodHRwOi8vY3JlYXRpdmVjb21tb25zLm9yZy9ucyMiIHhtbG5zOnJkZj0iaHR0cDovL3d3dy53My5vcmcvMTk5OS8wMi8yMi1yZGYtc3ludGF4LW5zIyIgeG1sbnM6c3ZnPSJodHRwOi8vd3d3LnczLm9yZy8yMDAwL3N2ZyIgeG1sbnM9Imh0dHA6Ly93d3cudzMub3JnLzIwMDAvc3ZnIiB4bWxuczp4bGluaz0iaHR0cDovL3d3dy53My5vcmcvMTk5OS94bGluayIgeG1sbnM6c29kaXBvZGk9Imh0dHA6Ly9zb2RpcG9kaS5zb3VyY2Vmb3JnZS5uZXQvRFREL3NvZGlwb2RpLTAuZHRkIiB4bWxuczppbmtzY2FwZT0iaHR0cDovL3d3dy5pbmtzY2FwZS5vcmcvbmFtZXNwYWNlcy9pbmtzY2FwZSIgdmVyc2lvbj0iMS4xIiBpZD0iTGF5ZXJfMSIgeD0iMHB4IiB5PSIwcHgiIHZpZXdCb3g9IjAgMCAzMS40NDAwMDEgMzMuNzAzNzQzIiB4bWw6c3BhY2U9InByZXNlcnZlIiBzb2RpcG9kaTpkb2NuYW1lPSJzYXBfc2Vfb2RhdGFfcHJvdmlzaW9uaW5nLnN2ZyIgd2lkdGg9IjMxLjQ0MDAwMSIgaGVpZ2h0PSIzMy43MDM3NDMiIGlua3NjYXBlOnZlcnNpb249IjAuOTIuMyAoMjQwNTU0NiwgMjAxOC0wMy0xMSkiPjxtZXRhZGF0YSBpZD0ibWV0YWRhdGE1OTkxNCI+PHJkZjpSREY+PGNjOldvcmsgcmRmOmFib3V0PSIiPjxkYzpmb3JtYXQ+aW1hZ2Uvc3ZnK3htbDwvZGM6Zm9ybWF0PjxkYzp0eXBlIHJkZjpyZXNvdXJjZT0iaHR0cDovL3B1cmwub3JnL2RjL2RjbWl0eXBlL1N0aWxsSW1hZ2UiLz48ZGM6dGl0bGUvPjwvY2M6V29yaz48L3JkZjpSREY+PC9tZXRhZGF0YT48ZGVmcyBpZD0iZGVmczU5OTEyIi8+PHNvZGlwb2RpOm5hbWVkdmlldyBwYWdlY29sb3I9IiNmZmZmZmYiIGJvcmRlcmNvbG9yPSIjNjY2NjY2IiBib3JkZXJvcGFjaXR5PSIxIiBvYmplY3R0b2xlcmFuY2U9IjEwIiBncmlkdG9sZXJhbmNlPSIxMCIgZ3VpZGV0b2xlcmFuY2U9IjEwIiBpbmtzY2FwZTpwYWdlb3BhY2l0eT0iMCIgaW5rc2NhcGU6cGFnZXNoYWRvdz0iMiIgaW5rc2NhcGU6d2luZG93LXdpZHRoPSIxOTIwIiBpbmtzY2FwZTp3aW5kb3ctaGVpZ2h0PSIxMDE3IiBpZD0ibmFtZWR2aWV3NTk5MTAiIHNob3dncmlkPSJmYWxzZSIgZml0LW1hcmdpbi10b3A9IjAiIGZpdC1tYXJnaW4tbGVmdD0iMCIgZml0LW1hcmdpbi1yaWdodD0iMCIgZml0LW1hcmdpbi1ib3R0b209IjAiIGlua3NjYXBlOnpvb209IjEuMDMwMzAzIiBpbmtzY2FwZTpjeD0iLTE4LjEyNSIgaW5rc2NhcGU6Y3k9Ii0xODUuNzg2MjYiIGlua3NjYXBlOndpbmRvdy14PSItOCIgaW5rc2NhcGU6d2luZG93LXk9Ii04IiBpbmtzY2FwZTp3aW5kb3ctbWF4aW1pemVkPSIxIiBpbmtzY2FwZTpjdXJyZW50LWxheWVyPSJMYXllcl8xIi8+JiN4YTsmI3hhOzxnIGlkPSJnNTk5MDciIHRyYW5zZm9ybT0idHJhbnNsYXRlKC0zMTUuNSwtMjAxLjI2KSI+JiN4YTsJPGRlZnMgaWQ9ImRlZnM1OTg3OCI+JiN4YTsJCTxyZWN0IGlkPSJTVkdJRF8zXyIgeD0iMzE1LjUiIHk9IjIwMS4yNTk5OSIgd2lkdGg9IjMzLjk4IiBoZWlnaHQ9IjMzLjk5MDAwMiIvPiYjeGE7CTwvZGVmcz4mI3hhOwk8Y2xpcFBhdGggaWQ9IlNWR0lEXzRfIj4mI3hhOwkJPHVzZSB4bGluazpocmVmPSIjU1ZHSURfM18iIHN0eWxlPSJvdmVyZmxvdzp2aXNpYmxlIiBpZD0idXNlNTk4ODAiIHg9IjAiIHk9IjAiIHdpZHRoPSIxMDAlIiBoZWlnaHQ9IjEwMCUiLz4mI3hhOwk8L2NsaXBQYXRoPiYjeGE7CTxnIGNsaXAtcGF0aD0idXJsKCNTVkdJRF80XykiIGlkPSJnNTk5MDUiPiYjeGE7CQk8ZGVmcyBpZD0iZGVmczU5ODg0Ij4mI3hhOwkJCTxyZWN0IGlkPSJTVkdJRF81XyIgeD0iMzE1LjUiIHk9IjIwMS4yNTk5OSIgd2lkdGg9IjMzLjk5MDAwMiIgaGVpZ2h0PSIzMy45OTAwMDIiLz4mI3hhOwkJPC9kZWZzPiYjeGE7CQk8Y2xpcFBhdGggaWQ9IlNWR0lEXzZfIj4mI3hhOwkJCTx1c2UgeGxpbms6aHJlZj0iI1NWR0lEXzVfIiBzdHlsZT0ib3ZlcmZsb3c6dmlzaWJsZSIgaWQ9InVzZTU5ODg2IiB4PSIwIiB5PSIwIiB3aWR0aD0iMTAwJSIgaGVpZ2h0PSIxMDAlIi8+JiN4YTsJCTwvY2xpcFBhdGg+JiN4YTsJCTxwYXRoIHN0eWxlPSJmaWxsOiMwMDkyZDEiIGQ9Im0gMzM1LjE0LDIwMS4yNiBoIDEwLjEyIGMgMC45LDAgMS42OCwwLjc4IDEuNjgsMS42OCB2IDEuMTQgYyAwLDAuOSAtMC43OCwxLjY4IC0xLjY4LDEuNjggaCAtMTAuMTIgYyAtMC45LDAgLTEuNjgsLTAuNzggLTEuNjgsLTEuNjggdiAtMS4xNCBjIDAuMDEsLTAuOSAwLjc5LC0xLjY4IDEuNjgsLTEuNjggeiIgY2xpcC1wYXRoPSJ1cmwoI1NWR0lEXzZfKSIgaWQ9InBhdGg1OTg4OSIgaW5rc2NhcGU6Y29ubmVjdG9yLWN1cnZhdHVyZT0iMCIvPiYjeGE7CQk8cGF0aCBzdHlsZT0iZmlsbDojMDA5MmQxIiBkPSJtIDMzNS4xNCwyMDguMDMgaCAxMC4xMiBjIDAuOSwwIDEuNjgsMC43MiAxLjY4LDEuNjggdiAxLjA4IGMgMCwwLjk2IC0wLjc4LDEuNzQgLTEuNjgsMS43NCBoIC0xMC4xMiBjIC0wLjksMCAtMS42OCwtMC43OCAtMS42OCwtMS43NCB2IC0xLjA4IGMgMC4wMSwtMC45NiAwLjc5LC0xLjY4IDEuNjgsLTEuNjggeiIgY2xpcC1wYXRoPSJ1cmwoI1NWR0lEXzZfKSIgaWQ9InBhdGg1OTg5MSIgaW5rc2NhcGU6Y29ubmVjdG9yLWN1cnZhdHVyZT0iMCIvPiYjeGE7CQk8cGF0aCBzdHlsZT0iZmlsbDojMDA5MmQxIiBkPSJtIDMzNS4xNCwyMTQuNzQgaCAxMC4xMiBjIDAuOSwwIDEuNjgsMC43OCAxLjY4LDEuNjggdiAxLjE0IGMgMCwwLjkgLTAuNzgsMS42OCAtMS42OCwxLjY4IGggLTEwLjEyIGMgLTAuOSwwIC0xLjY4LC0wLjc4IC0xLjY4LC0xLjY4IHYgLTEuMTQgYyAwLjAxLC0wLjkgMC43OSwtMS42OCAxLjY4LC0xLjY4IHoiIGNsaXAtcGF0aD0idXJsKCNTVkdJRF82XykiIGlkPSJwYXRoNTk4OTMiIGlua3NjYXBlOmNvbm5lY3Rvci1jdXJ2YXR1cmU9IjAiLz4mI3hhOwkJPHBhdGggc3R5bGU9ImZpbGw6IzAwOTJkMSIgZD0ibSAzMzUuMTQsMjIxLjUxIGggMTAuMTIgYyAwLjksMCAxLjY4LDAuNzIgMS42OCwxLjY4IHYgMS4wOCBjIDAsMC45NiAtMC43OCwxLjc0IC0xLjY4LDEuNzQgaCAtMTAuMTIgYyAtMC45LDAgLTEuNjgsLTAuNzggLTEuNjgsLTEuNzQgdiAtMS4wOCBjIDAuMDEsLTAuOTYgMC43OSwtMS42OCAxLjY4LC0xLjY4IHoiIGNsaXAtcGF0aD0idXJsKCNTVkdJRF82XykiIGlkPSJwYXRoNTk4OTUiIGlua3NjYXBlOmNvbm5lY3Rvci1jdXJ2YXR1cmU9IjAiLz4mI3hhOwkJPHBhdGggc3R5bGU9ImZpbGw6IzAwOTJkMSIgZD0ibSAzMTcuMTgsMjE0Ljc0IGggMTAuMTIgYyAwLjksMCAxLjY4LDAuNzggMS42OCwxLjY4IHYgMS4xNCBjIDAsMC45IC0wLjc4LDEuNjggLTEuNjgsMS42OCBoIC0xMC4xMiBjIC0wLjksMCAtMS42OCwtMC43OCAtMS42OCwtMS42OCB2IC0xLjE0IGMgMCwtMC45IDAuNzgsLTEuNjggMS42OCwtMS42OCB6IiBjbGlwLXBhdGg9InVybCgjU1ZHSURfNl8pIiBpZD0icGF0aDU5ODk3IiBpbmtzY2FwZTpjb25uZWN0b3ItY3VydmF0dXJlPSIwIi8+JiN4YTsJCTxwYXRoIHN0eWxlPSJmaWxsOiMwMDkyZDEiIGQ9Im0gMzE3LjE4LDIwOC4wMyBoIDEwLjEyIGMgMC45LDAgMS42OCwwLjcyIDEuNjgsMS42OCB2IDEuMDggYyAwLDAuOTYgLTAuNzgsMS43NCAtMS42OCwxLjc0IGggLTEwLjEyIGMgLTAuOSwwIC0xLjY4LC0wLjc4IC0xLjY4LC0xLjc0IHYgLTEuMDggYyAwLC0wLjk2IDAuNzgsLTEuNjggMS42OCwtMS42OCB6IiBjbGlwLXBhdGg9InVybCgjU1ZHSURfNl8pIiBpZD0icGF0aDU5ODk5IiBpbmtzY2FwZTpjb25uZWN0b3ItY3VydmF0dXJlPSIwIi8+JiN4YTsJCTxwYXRoIHN0eWxlPSJmaWxsOiMwMDkyZDEiIGQ9Im0gMzE3LjE4LDIwMS4yNiBoIDEwLjEyIGMgMC45LDAgMS42OCwwLjc4IDEuNjgsMS42OCB2IDEuMTQgYyAwLDAuOSAtMC43OCwxLjY4IC0xLjY4LDEuNjggaCAtMTAuMTIgYyAtMC45LDAgLTEuNjgsLTAuNzggLTEuNjgsLTEuNjggdiAtMS4xNCBjIDAsLTAuOSAwLjc4LC0xLjY4IDEuNjgsLTEuNjggeiIgY2xpcC1wYXRoPSJ1cmwoI1NWR0lEXzZfKSIgaWQ9InBhdGg1OTkwMSIgaW5rc2NhcGU6Y29ubmVjdG9yLWN1cnZhdHVyZT0iMCIvPiYjeGE7CQk8cGF0aCBzdHlsZT0iZmlsbDojNWE3YTk0IiBkPSJtIDMyMi4yNywyMjEuNTEgYyAtNi4wNSwwIC05LjA0LDcuMjUgLTQuNzksMTEuNSA0LjI1LDQuMTkgMTEuNSwxLjIgMTEuNSwtNC43OSAwLC0zLjcyIC0zLC02LjcxIC02LjcxLC02LjcxIHogbSAwLDIuMjEgYyAzLjk1LDAgNS45OSw0Ljg1IDMuMTcsNy42NyAtMi44NywyLjgyIC03LjY3LDAuODQgLTcuNjcsLTMuMTcgMC4wMSwtMi40NiAxLjk4LC00LjUgNC41LC00LjUgeiIgY2xpcC1wYXRoPSJ1cmwoI1NWR0lEXzZfKSIgaWQ9InBhdGg1OTkwMyIgaW5rc2NhcGU6Y29ubmVjdG9yLWN1cnZhdHVyZT0iMCIvPiYjeGE7CTwvZz4mI3hhOzwvZz4mI3hhOzwvc3ZnPg==;" parent="ZfdYoAjNMy2BQfxZGGwY-3" vertex="1">
          <mxGeometry x="71.5" y="60" width="31" height="34" as="geometry"/>
        </mxCell>
        <mxCell id="o9KLlf289_FCoUb2ZYAq-12" value="" style="shape=image;verticalLabelPosition=bottom;labelBackgroundColor=#ffffff;verticalAlign=top;aspect=fixed;imageAspect=0;image=data:image/svg+xml,PHN2ZyB4bWxuczpkYz0iaHR0cDovL3B1cmwub3JnL2RjL2VsZW1lbnRzLzEuMS8iIHhtbG5zOmNjPSJodHRwOi8vY3JlYXRpdmVjb21tb25zLm9yZy9ucyMiIHhtbG5zOnJkZj0iaHR0cDovL3d3dy53My5vcmcvMTk5OS8wMi8yMi1yZGYtc3ludGF4LW5zIyIgeG1sbnM6c3ZnPSJodHRwOi8vd3d3LnczLm9yZy8yMDAwL3N2ZyIgeG1sbnM9Imh0dHA6Ly93d3cudzMub3JnLzIwMDAvc3ZnIiB4bWxuczp4bGluaz0iaHR0cDovL3d3dy53My5vcmcvMTk5OS94bGluayIgeG1sbnM6c29kaXBvZGk9Imh0dHA6Ly9zb2RpcG9kaS5zb3VyY2Vmb3JnZS5uZXQvRFREL3NvZGlwb2RpLTAuZHRkIiB4bWxuczppbmtzY2FwZT0iaHR0cDovL3d3dy5pbmtzY2FwZS5vcmcvbmFtZXNwYWNlcy9pbmtzY2FwZSIgdmVyc2lvbj0iMS4xIiBpZD0iTGF5ZXJfMSIgeD0iMHB4IiB5PSIwcHgiIHZpZXdCb3g9IjAgMCAzMS40NDAwMDEgMzMuNzAzNzQzIiB4bWw6c3BhY2U9InByZXNlcnZlIiBzb2RpcG9kaTpkb2NuYW1lPSJzYXBfc2Vfb2RhdGFfcHJvdmlzaW9uaW5nLnN2ZyIgd2lkdGg9IjMxLjQ0MDAwMSIgaGVpZ2h0PSIzMy43MDM3NDMiIGlua3NjYXBlOnZlcnNpb249IjAuOTIuMyAoMjQwNTU0NiwgMjAxOC0wMy0xMSkiPjxtZXRhZGF0YSBpZD0ibWV0YWRhdGE1OTkxNCI+PHJkZjpSREY+PGNjOldvcmsgcmRmOmFib3V0PSIiPjxkYzpmb3JtYXQ+aW1hZ2Uvc3ZnK3htbDwvZGM6Zm9ybWF0PjxkYzp0eXBlIHJkZjpyZXNvdXJjZT0iaHR0cDovL3B1cmwub3JnL2RjL2RjbWl0eXBlL1N0aWxsSW1hZ2UiLz48ZGM6dGl0bGUvPjwvY2M6V29yaz48L3JkZjpSREY+PC9tZXRhZGF0YT48ZGVmcyBpZD0iZGVmczU5OTEyIi8+PHNvZGlwb2RpOm5hbWVkdmlldyBwYWdlY29sb3I9IiNmZmZmZmYiIGJvcmRlcmNvbG9yPSIjNjY2NjY2IiBib3JkZXJvcGFjaXR5PSIxIiBvYmplY3R0b2xlcmFuY2U9IjEwIiBncmlkdG9sZXJhbmNlPSIxMCIgZ3VpZGV0b2xlcmFuY2U9IjEwIiBpbmtzY2FwZTpwYWdlb3BhY2l0eT0iMCIgaW5rc2NhcGU6cGFnZXNoYWRvdz0iMiIgaW5rc2NhcGU6d2luZG93LXdpZHRoPSIxOTIwIiBpbmtzY2FwZTp3aW5kb3ctaGVpZ2h0PSIxMDE3IiBpZD0ibmFtZWR2aWV3NTk5MTAiIHNob3dncmlkPSJmYWxzZSIgZml0LW1hcmdpbi10b3A9IjAiIGZpdC1tYXJnaW4tbGVmdD0iMCIgZml0LW1hcmdpbi1yaWdodD0iMCIgZml0LW1hcmdpbi1ib3R0b209IjAiIGlua3NjYXBlOnpvb209IjEuMDMwMzAzIiBpbmtzY2FwZTpjeD0iLTE4LjEyNSIgaW5rc2NhcGU6Y3k9Ii0xODUuNzg2MjYiIGlua3NjYXBlOndpbmRvdy14PSItOCIgaW5rc2NhcGU6d2luZG93LXk9Ii04IiBpbmtzY2FwZTp3aW5kb3ctbWF4aW1pemVkPSIxIiBpbmtzY2FwZTpjdXJyZW50LWxheWVyPSJMYXllcl8xIi8+JiN4YTsmI3hhOzxnIGlkPSJnNTk5MDciIHRyYW5zZm9ybT0idHJhbnNsYXRlKC0zMTUuNSwtMjAxLjI2KSI+JiN4YTsJPGRlZnMgaWQ9ImRlZnM1OTg3OCI+JiN4YTsJCTxyZWN0IGlkPSJTVkdJRF8zXyIgeD0iMzE1LjUiIHk9IjIwMS4yNTk5OSIgd2lkdGg9IjMzLjk4IiBoZWlnaHQ9IjMzLjk5MDAwMiIvPiYjeGE7CTwvZGVmcz4mI3hhOwk8Y2xpcFBhdGggaWQ9IlNWR0lEXzRfIj4mI3hhOwkJPHVzZSB4bGluazpocmVmPSIjU1ZHSURfM18iIHN0eWxlPSJvdmVyZmxvdzp2aXNpYmxlIiBpZD0idXNlNTk4ODAiIHg9IjAiIHk9IjAiIHdpZHRoPSIxMDAlIiBoZWlnaHQ9IjEwMCUiLz4mI3hhOwk8L2NsaXBQYXRoPiYjeGE7CTxnIGNsaXAtcGF0aD0idXJsKCNTVkdJRF80XykiIGlkPSJnNTk5MDUiPiYjeGE7CQk8ZGVmcyBpZD0iZGVmczU5ODg0Ij4mI3hhOwkJCTxyZWN0IGlkPSJTVkdJRF81XyIgeD0iMzE1LjUiIHk9IjIwMS4yNTk5OSIgd2lkdGg9IjMzLjk5MDAwMiIgaGVpZ2h0PSIzMy45OTAwMDIiLz4mI3hhOwkJPC9kZWZzPiYjeGE7CQk8Y2xpcFBhdGggaWQ9IlNWR0lEXzZfIj4mI3hhOwkJCTx1c2UgeGxpbms6aHJlZj0iI1NWR0lEXzVfIiBzdHlsZT0ib3ZlcmZsb3c6dmlzaWJsZSIgaWQ9InVzZTU5ODg2IiB4PSIwIiB5PSIwIiB3aWR0aD0iMTAwJSIgaGVpZ2h0PSIxMDAlIi8+JiN4YTsJCTwvY2xpcFBhdGg+JiN4YTsJCTxwYXRoIHN0eWxlPSJmaWxsOiMwMDkyZDEiIGQ9Im0gMzM1LjE0LDIwMS4yNiBoIDEwLjEyIGMgMC45LDAgMS42OCwwLjc4IDEuNjgsMS42OCB2IDEuMTQgYyAwLDAuOSAtMC43OCwxLjY4IC0xLjY4LDEuNjggaCAtMTAuMTIgYyAtMC45LDAgLTEuNjgsLTAuNzggLTEuNjgsLTEuNjggdiAtMS4xNCBjIDAuMDEsLTAuOSAwLjc5LC0xLjY4IDEuNjgsLTEuNjggeiIgY2xpcC1wYXRoPSJ1cmwoI1NWR0lEXzZfKSIgaWQ9InBhdGg1OTg4OSIgaW5rc2NhcGU6Y29ubmVjdG9yLWN1cnZhdHVyZT0iMCIvPiYjeGE7CQk8cGF0aCBzdHlsZT0iZmlsbDojMDA5MmQxIiBkPSJtIDMzNS4xNCwyMDguMDMgaCAxMC4xMiBjIDAuOSwwIDEuNjgsMC43MiAxLjY4LDEuNjggdiAxLjA4IGMgMCwwLjk2IC0wLjc4LDEuNzQgLTEuNjgsMS43NCBoIC0xMC4xMiBjIC0wLjksMCAtMS42OCwtMC43OCAtMS42OCwtMS43NCB2IC0xLjA4IGMgMC4wMSwtMC45NiAwLjc5LC0xLjY4IDEuNjgsLTEuNjggeiIgY2xpcC1wYXRoPSJ1cmwoI1NWR0lEXzZfKSIgaWQ9InBhdGg1OTg5MSIgaW5rc2NhcGU6Y29ubmVjdG9yLWN1cnZhdHVyZT0iMCIvPiYjeGE7CQk8cGF0aCBzdHlsZT0iZmlsbDojMDA5MmQxIiBkPSJtIDMzNS4xNCwyMTQuNzQgaCAxMC4xMiBjIDAuOSwwIDEuNjgsMC43OCAxLjY4LDEuNjggdiAxLjE0IGMgMCwwLjkgLTAuNzgsMS42OCAtMS42OCwxLjY4IGggLTEwLjEyIGMgLTAuOSwwIC0xLjY4LC0wLjc4IC0xLjY4LC0xLjY4IHYgLTEuMTQgYyAwLjAxLC0wLjkgMC43OSwtMS42OCAxLjY4LC0xLjY4IHoiIGNsaXAtcGF0aD0idXJsKCNTVkdJRF82XykiIGlkPSJwYXRoNTk4OTMiIGlua3NjYXBlOmNvbm5lY3Rvci1jdXJ2YXR1cmU9IjAiLz4mI3hhOwkJPHBhdGggc3R5bGU9ImZpbGw6IzAwOTJkMSIgZD0ibSAzMzUuMTQsMjIxLjUxIGggMTAuMTIgYyAwLjksMCAxLjY4LDAuNzIgMS42OCwxLjY4IHYgMS4wOCBjIDAsMC45NiAtMC43OCwxLjc0IC0xLjY4LDEuNzQgaCAtMTAuMTIgYyAtMC45LDAgLTEuNjgsLTAuNzggLTEuNjgsLTEuNzQgdiAtMS4wOCBjIDAuMDEsLTAuOTYgMC43OSwtMS42OCAxLjY4LC0xLjY4IHoiIGNsaXAtcGF0aD0idXJsKCNTVkdJRF82XykiIGlkPSJwYXRoNTk4OTUiIGlua3NjYXBlOmNvbm5lY3Rvci1jdXJ2YXR1cmU9IjAiLz4mI3hhOwkJPHBhdGggc3R5bGU9ImZpbGw6IzAwOTJkMSIgZD0ibSAzMTcuMTgsMjE0Ljc0IGggMTAuMTIgYyAwLjksMCAxLjY4LDAuNzggMS42OCwxLjY4IHYgMS4xNCBjIDAsMC45IC0wLjc4LDEuNjggLTEuNjgsMS42OCBoIC0xMC4xMiBjIC0wLjksMCAtMS42OCwtMC43OCAtMS42OCwtMS42OCB2IC0xLjE0IGMgMCwtMC45IDAuNzgsLTEuNjggMS42OCwtMS42OCB6IiBjbGlwLXBhdGg9InVybCgjU1ZHSURfNl8pIiBpZD0icGF0aDU5ODk3IiBpbmtzY2FwZTpjb25uZWN0b3ItY3VydmF0dXJlPSIwIi8+JiN4YTsJCTxwYXRoIHN0eWxlPSJmaWxsOiMwMDkyZDEiIGQ9Im0gMzE3LjE4LDIwOC4wMyBoIDEwLjEyIGMgMC45LDAgMS42OCwwLjcyIDEuNjgsMS42OCB2IDEuMDggYyAwLDAuOTYgLTAuNzgsMS43NCAtMS42OCwxLjc0IGggLTEwLjEyIGMgLTAuOSwwIC0xLjY4LC0wLjc4IC0xLjY4LC0xLjc0IHYgLTEuMDggYyAwLC0wLjk2IDAuNzgsLTEuNjggMS42OCwtMS42OCB6IiBjbGlwLXBhdGg9InVybCgjU1ZHSURfNl8pIiBpZD0icGF0aDU5ODk5IiBpbmtzY2FwZTpjb25uZWN0b3ItY3VydmF0dXJlPSIwIi8+JiN4YTsJCTxwYXRoIHN0eWxlPSJmaWxsOiMwMDkyZDEiIGQ9Im0gMzE3LjE4LDIwMS4yNiBoIDEwLjEyIGMgMC45LDAgMS42OCwwLjc4IDEuNjgsMS42OCB2IDEuMTQgYyAwLDAuOSAtMC43OCwxLjY4IC0xLjY4LDEuNjggaCAtMTAuMTIgYyAtMC45LDAgLTEuNjgsLTAuNzggLTEuNjgsLTEuNjggdiAtMS4xNCBjIDAsLTAuOSAwLjc4LC0xLjY4IDEuNjgsLTEuNjggeiIgY2xpcC1wYXRoPSJ1cmwoI1NWR0lEXzZfKSIgaWQ9InBhdGg1OTkwMSIgaW5rc2NhcGU6Y29ubmVjdG9yLWN1cnZhdHVyZT0iMCIvPiYjeGE7CQk8cGF0aCBzdHlsZT0iZmlsbDojNWE3YTk0IiBkPSJtIDMyMi4yNywyMjEuNTEgYyAtNi4wNSwwIC05LjA0LDcuMjUgLTQuNzksMTEuNSA0LjI1LDQuMTkgMTEuNSwxLjIgMTEuNSwtNC43OSAwLC0zLjcyIC0zLC02LjcxIC02LjcxLC02LjcxIHogbSAwLDIuMjEgYyAzLjk1LDAgNS45OSw0Ljg1IDMuMTcsNy42NyAtMi44NywyLjgyIC03LjY3LDAuODQgLTcuNjcsLTMuMTcgMC4wMSwtMi40NiAxLjk4LC00LjUgNC41LC00LjUgeiIgY2xpcC1wYXRoPSJ1cmwoI1NWR0lEXzZfKSIgaWQ9InBhdGg1OTkwMyIgaW5rc2NhcGU6Y29ubmVjdG9yLWN1cnZhdHVyZT0iMCIvPiYjeGE7CTwvZz4mI3hhOzwvZz4mI3hhOzwvc3ZnPg==;" parent="ZfdYoAjNMy2BQfxZGGwY-3" vertex="1">
          <mxGeometry x="119" y="60" width="31" height="34" as="geometry"/>
        </mxCell>
        <mxCell id="o9KLlf289_FCoUb2ZYAq-13" value="名片信息" style="text;html=1;strokeColor=none;fillColor=none;align=center;verticalAlign=middle;whiteSpace=wrap;rounded=0;" parent="ZfdYoAjNMy2BQfxZGGwY-3" vertex="1">
          <mxGeometry x="56" y="30" width="64" height="20" as="geometry"/>
        </mxCell>
        <mxCell id="ZfdYoAjNMy2BQfxZGGwY-2" value="单位1" style="text;html=1;strokeColor=none;fillColor=none;align=center;verticalAlign=middle;whiteSpace=wrap;rounded=0;" parent="ZfdYoAjNMy2BQfxZGGwY-3" vertex="1">
          <mxGeometry x="63.5" y="220" width="40" height="20" as="geometry"/>
        </mxCell>
        <mxCell id="ZfdYoAjNMy2BQfxZGGwY-4" value="" style="group" parent="1" vertex="1" connectable="0">
          <mxGeometry x="300" y="250" width="170" height="240" as="geometry"/>
        </mxCell>
        <mxCell id="ZfdYoAjNMy2BQfxZGGwY-5" value="" style="rounded=1;whiteSpace=wrap;html=1;" parent="ZfdYoAjNMy2BQfxZGGwY-4" vertex="1">
          <mxGeometry width="170" height="220" as="geometry"/>
        </mxCell>
        <mxCell id="ZfdYoAjNMy2BQfxZGGwY-6" value="智能合约" style="shape=image;verticalLabelPosition=bottom;labelBackgroundColor=#ffffff;verticalAlign=top;aspect=fixed;imageAspect=0;image=data:image/svg+xml,PHN2ZyB4bWxuczpjYz0iaHR0cDovL2NyZWF0aXZlY29tbW9ucy5vcmcvbnMjIiB4bWxuczpkYz0iaHR0cDovL3B1cmwub3JnL2RjL2VsZW1lbnRzLzEuMS8iIHhtbG5zOmlua3NjYXBlPSJodHRwOi8vd3d3Lmlua3NjYXBlLm9yZy9uYW1lc3BhY2VzL2lua3NjYXBlIiB4bWxuczpyZGY9Imh0dHA6Ly93d3cudzMub3JnLzE5OTkvMDIvMjItcmRmLXN5bnRheC1ucyMiIHhtbG5zOnNvZGlwb2RpPSJodHRwOi8vc29kaXBvZGkuc291cmNlZm9yZ2UubmV0L0RURC9zb2RpcG9kaS0wLmR0ZCIgeG1sbnM6c3ZnPSJodHRwOi8vd3d3LnczLm9yZy8yMDAwL3N2ZyIgeG1sbnM9Imh0dHA6Ly93d3cudzMub3JnLzIwMDAvc3ZnIiB4bWxuczp4bGluaz0iaHR0cDovL3d3dy53My5vcmcvMTk5OS94bGluayIgdmVyc2lvbj0iMS4xIiBpZD0ic3ZnNjYxODciIGlua3NjYXBlOnZlcnNpb249IjAuOTIuMyAoMjQwNTU0NiwgMjAxOC0wMy0xMSkiIHNvZGlwb2RpOmRvY25hbWU9ImNvbmZpZ3VyYXRpb25zLnN2ZyIgeD0iMHB4IiB5PSIwcHgiIHZpZXdCb3g9IjAgMCA0Ni41IDQ2LjY0IiBzdHlsZT0iZW5hYmxlLWJhY2tncm91bmQ6bmV3IDAgMCA0Ni41IDQ2LjY0OyIgeG1sOnNwYWNlPSJwcmVzZXJ2ZSI+JiN4YTs8c29kaXBvZGk6bmFtZWR2aWV3IGJvcmRlcmNvbG9yPSIjNjY2NjY2IiBib3JkZXJvcGFjaXR5PSIxIiBmaXQtbWFyZ2luLWJvdHRvbT0iMCIgZml0LW1hcmdpbi1sZWZ0PSIwIiBmaXQtbWFyZ2luLXJpZ2h0PSIwIiBmaXQtbWFyZ2luLXRvcD0iMCIgZ3JpZHRvbGVyYW5jZT0iMTAiIGd1aWRldG9sZXJhbmNlPSIxMCIgaWQ9Im5hbWVkdmlldzY2MTg5IiBpbmtzY2FwZTpjdXJyZW50LWxheWVyPSJzdmc2NjE4NyIgaW5rc2NhcGU6Y3g9IjMxLjAwMzYxMiIgaW5rc2NhcGU6Y3k9IjMxLjA4MTY3NyIgaW5rc2NhcGU6cGFnZW9wYWNpdHk9IjAiIGlua3NjYXBlOnBhZ2VzaGFkb3c9IjIiIGlua3NjYXBlOndpbmRvdy1oZWlnaHQ9IjEwMTciIGlua3NjYXBlOndpbmRvdy1tYXhpbWl6ZWQ9IjEiIGlua3NjYXBlOndpbmRvdy13aWR0aD0iMTkyMCIgaW5rc2NhcGU6d2luZG93LXg9Ii04IiBpbmtzY2FwZTp3aW5kb3cteT0iLTgiIGlua3NjYXBlOnpvb209IjEzLjUxMDk3NiIgb2JqZWN0dG9sZXJhbmNlPSIxMCIgcGFnZWNvbG9yPSIjZmZmZmZmIiBzaG93Z3JpZD0iZmFsc2UiPiYjeGE7CTwvc29kaXBvZGk6bmFtZWR2aWV3PiYjeGE7PGcgaWQ9Imc2NjE4NSIgdHJhbnNmb3JtPSJ0cmFuc2xhdGUoLTAuNzQ3MzAxNjksLTAuNzM5Mjk2KSI+JiN4YTsJPHRpdGxlIGlkPSJ0aXRsZTY2MTYwIj5QYWdlLTE8L3RpdGxlPiYjeGE7CTxnIGlkPSJncm91cDUwNjAtMSIgdHJhbnNmb3JtPSJ0cmFuc2xhdGUoMS41MDAwNCwtMS40OTI1NCkiPiYjeGE7CQk8dGl0bGUgaWQ9InRpdGxlNjYxNjIiPkNvbmZpZ3VyYXRpb25zPC90aXRsZT4mI3hhOwkJPGcgaWQ9InNoYXBlNTA2MS0yIj4mI3hhOwkJCTx0aXRsZSBpZD0idGl0bGU2NjE2NCI+cGF0aDE1MTQwPC90aXRsZT4mI3hhOwkJCSYjeGE7CQkJCTxwYXRoIGlkPSJwYXRoNjYxNjYiIGlua3NjYXBlOmNvbm5lY3Rvci1jdXJ2YXR1cmU9IjAiIHN0eWxlPSJmaWxsOiNGRkZGRkY7c3Ryb2tlOiM1NTZBOEE7c3Ryb2tlLXdpZHRoOjEuNTtzdHJva2UtbWl0ZXJsaW1pdDozOyIgZD0iICAgICBNMC44MywyNy41TDQuMTgsMjhjMC4wNSwwLjc2LDAuMTcsMS41MSwwLjM1LDIuMjVsLTIuNzcsMS44MWMtMC40NiwwLjE3LTAuNjksMC42Ny0wLjUyLDEuMTNjMC4wMSwwLjAyLDAuMDIsMC4wNSwwLjAzLDAuMDcgICAgIGwwLjgzLDIuMDJjMC4xNiwwLjM4LDAuNTksMC41NywwLjk4LDAuNDFjMC4wMy0wLjAxLDAuMDctMC4wMywwLjEtMC4wNWwzLjM3LTAuN2wxLjA2LDEuODNMNS42NywzOS40ICAgICBjLTAuMzEsMC4zNC0wLjMxLDAuODYsMCwxLjJsMS42NiwxLjY5YzAuMzYsMC4yNCwwLjg0LDAuMjQsMS4yLDBsMi42NS0xLjg5YzAuNiwwLjM2LDEuMzIsMC44NCwxLjkxLDEuMmwtMC43NSwzLjM2ICAgICBjLTAuMSwwLjM5LDAuMDksMC44LDAuNDcsMC45N2wyLjA1LDAuODRjMC4zNSwwLjIyLDAuODEsMC4xMSwxLjAzLTAuMjRjMC4wMi0wLjAzLDAuMDQtMC4wNywwLjA1LTAuMWwxLjgyLTIuOTkgICAgIGMwLjY5LDAuMjgsMS40MSwwLjQ1LDIuMTUsMC41bDAuNDcsMy4zNGMtMC4wMSwwLjQ2LDAuMzUsMC44MywwLjgsMC44NWMwLjAxLDAsMC4wMiwwLDAuMDMsMGwyLjI1LTAuMTEgICAgIGMwLjM2LDAuMTIsMC43NS0wLjI0LDAuODQtMC41OWwwLjYzLTMuNDhjMC43NS0wLjAzLDEuNDktMC4xNywyLjE5LTAuNDJsMS43OCwzYzAuMjcsMC4zLDAuNjgsMC40NCwxLjA4LDAuMzdsMi4xNi0wLjk0ICAgICBjMC4zOC0wLjE1LDAuNTgtMC41NiwwLjQ5LTAuOTVsLTAuODItMy4yNmMwLjE2LTAuMSwwLjMxLTAuMiwwLjQ2LTAuMzJjMC4xLTAuMDYsMC4yLTAuMTQsMC4zLTAuMjIgICAgIGMwLjM1LTAuMjYsMC43MS0wLjU2LDEuMDUtMC43NWwyLjc1LDIuMDVjMC4zMiwwLjI3LDAuNzksMC4yMywxLjA2LTAuMDhjMC4wMS0wLjAxLDAuMDItMC4wMiwwLjAyLTAuMDNsMS0wLjk5bDAuNTYtMC41NiAgICAgYzAuMzItMC4yNiwwLjM3LTAuNzMsMC4xMS0xLjA2YzAsMCwwLDAsMCwwbC0yLjAyLTIuNzdjMC41My0wLjYyLDAuOTgtMS4zMSwxLjM0LTIuMDRsMy4zNCwwLjk4YzAuNDksMC4wNiwwLjk1LTAuMjIsMS4xMi0wLjY4ICAgICBsMC44NS0yLjA0YzAuMTQtMC40Ni0wLjA2LTAuOTYtMC40Ny0xLjJsLTIuODctMS43YzAuMjUtMC43NSwwLjI1LTEuNDQsMC40OS0yLjE1bDMuMzUtMC40MWMwLjQzLTAuMTMsMC43My0wLjUxLDAuNzUtMC45NiAgICAgdi0yLjE2YzAtMC40NC0wLjI4LTAuODMtMC43LTAuOTdsLTMuNDktMC40MWMtMC4wOC0wLjgxLTAuMjMtMS42MS0wLjQ1LTIuNGwzLTEuNzhjMC4zOS0wLjE1LDAuNTgtMC41OCwwLjQzLTAuOTcgICAgIGMtMC4wMS0wLjA0LTAuMDMtMC4wNy0wLjA1LTAuMTFsLTAuODMtMi4wNGMtMC4yLTAuNC0wLjYyLTAuNjQtMS4wNy0wLjYxbC0zLjM4LDAuOTRjLTAuMzUtMC42LTAuNy0xLjIxLTEuMDYtMS44MWwyLjA2LTIuNzQgICAgIGMwLjE1LTAuMzYsMC4xMS0wLjc3LTAuMTItMS4wOGwtMS42Ni0xLjY1Yy0wLjI5LTAuMjgtMC43My0wLjMzLTEuMDctMC4xM2wtMi43OCwyLjAxYy0wLjYtMC4zOC0xLjMxLTAuODYtMS45MS0xLjIybDAuNzUtMy4zNiAgICAgYzAuMTEtMC4zOS0wLjA5LTAuOC0wLjQ3LTAuOTZMMzAsNC4zOWMtMC40LTAuMTEtMC44MywwLjAyLTEuMDksMC4zNWwtMS42NiwyLjg4Yy0wLjc1LDAtMS40NC0wLjI1LTIuMTYtMC4yNmwtMC4zNC0zLjQ4ICAgICBjLTAuMTMtMC40My0wLjUxLTAuNzMtMC45Ni0wLjc1bC0yLjI1LTAuMTRjLTAuMzksMC4xNC0wLjcsMC40NC0wLjg0LDAuODNsLTAuNTEsMy4zN2MtMC44NCwwLjExLTEuNTYsMC4zNS0yLjQsMC40NWwtMS42OC0yLjg1ICAgICBDMTUuOSw0LjM4LDE1LjQxLDQuMjIsMTUsNC40MmwtMi4wMSwwLjg1Yy0wLjQzLDAuMTYtMC42OCwwLjYtMC42MSwxLjA1bDAuODIsMy4yNWMtMC42NiwwLjM1LTEuMjcsMC43OS0xLjgxLDEuMzFMOC42NCw4LjgyICAgICBjLTAuMjktMC4zMy0wLjgtMC4zNy0xLjEzLTAuMDhDNy40OCw4Ljc3LDcuNDYsOC43OSw3LjQzLDguODJMNiwxMC4yNWwtMC4xMywwLjEyYy0wLjMzLDAuMzEtMC4zNSwwLjgyLTAuMDQsMS4xNiAgICAgYzAuMDEsMC4wMiwwLjAzLDAuMDMsMC4wNCwwLjA0bDIuMDIsMi43N2MtMC40MiwwLjQtMC43NiwwLjg3LTEuMDMsMS4zOWwtMC4wOSwwLjE2Yy0wLjA3LDAuMTUtMC4xNSwwLjMxLTAuMjIsMC40OEwzLjIsMTUuMzkgICAgIGMtMC4zOS0wLjEtMC43OSwwLjEtMC45NSwwLjQ2bC0wLjk5LDIuMTdjLTAuMDcsMC40LDAuMDYsMC44MSwwLjM1LDEuMDlsMywxLjgyYy0wLjI1LDAuNjUtMC4zNywxLjM0LTAuMzgsMi4wNGwtMy40OCwwLjU2ICAgICBDMC40LDIzLjY2LDAsMjQuMDEsMCwyNC4yOHYyLjRjMCwwLjQ1LDAuMzUsMC44MSwwLjgsMC44MkMwLjgxLDI3LjUsMC44MiwyNy41LDAuODMsMjcuNUwwLjgzLDI3LjV6Ii8+JiN4YTsJCTwvZz4mI3hhOwkJPGcgaWQ9InNoYXBlNTA2Mi00IiB0cmFuc2Zvcm09InRyYW5zbGF0ZSgxMS4yNSwtMjAuMzUzNikiPiYjeGE7CQkJPHRpdGxlIGlkPSJ0aXRsZTY2MTY5Ij5wYXRoMTUxNDI8L3RpdGxlPiYjeGE7CQkJJiN4YTsJCQkJPHBhdGggaWQ9InBhdGg2NjE3MSIgaW5rc2NhcGU6Y29ubmVjdG9yLWN1cnZhdHVyZT0iMCIgc3R5bGU9ImZpbGw6I0ZGRkZGRjtzdHJva2U6IzJCQzdGNDtzdHJva2Utd2lkdGg6MS41O3N0cm9rZS1taXRlcmxpbWl0OjM7IiBkPSIgICAgIE0wLjg3LDQxLjZjMi40LTUuNzMsOC45OS04LjQ0LDE0LjcyLTYuMDRjNS43MywyLjQsOC40NCw4Ljk5LDYuMDQsMTQuNzJzLTguOTksOC40NC0xNC43Miw2LjA0QzIuNzQsNTQuNTgsMC4wMiw1MC41MSwwLDQ1Ljk5ICAgICBDLTAuMDEsNDQuNDgsMC4yOSw0Mi45OSwwLjg3LDQxLjZ6Ii8+JiN4YTsJCTwvZz4mI3hhOwkJPGcgaWQ9InNoYXBlNTA2My02IiB0cmFuc2Zvcm09InRyYW5zbGF0ZSgxNi4wNDQ5LC0xNS42OTQ5KSI+JiN4YTsJCQk8dGl0bGUgaWQ9InRpdGxlNjYxNzQiPnBhdGgxNTE0NDwvdGl0bGU+JiN4YTsJCQk8cGF0aCBpZD0icGF0aDY2MTc2IiBpbmtzY2FwZTpjb25uZWN0b3ItY3VydmF0dXJlPSIwIiBzdHlsZT0iZmlsbDojNTU2QThBOyIgZD0iTTEzLjM1LDM2LjNsLTIuMTIsMi4xM2wtMS44LDAuMzFsMC4yMS0xLjkxICAgICBsMi4xMi0yLjEyYy0xLjI5LTAuNS0yLjc1LTAuMjYtMy44MiwwLjYzYy0wLjg5LDEtMS4wNywyLjQ1LTAuNDMsMy42M2wtNy4yNiw3LjI2Yy0wLjM4LDAuNDYtMC4zMywxLjE0LDAuMTMsMS41MiAgICAgYzAuMDEsMC4wMSwwLjAxLDAuMDEsMC4wMiwwLjAyYzAuMzMsMC40MSwwLjkyLDAuNDgsMS4zMywwLjE1YzAuMDQtMC4wMywwLjA3LTAuMDYsMC4xLTAuMWw3LjI3LTcuMjYgICAgIGMxLjE3LDAuNjMsMi42MiwwLjQ1LDMuNjEtMC40M0MxMy42LDM5LjA2LDEzLjg1LDM3LjYsMTMuMzUsMzYuM3oiLz4mI3hhOwkJPC9nPiYjeGE7CQk8ZyBpZD0ic2hhcGU1MDY0LTgiIHRyYW5zZm9ybT0idHJhbnNsYXRlKDE1LC0xNS4zOTc0KSI+JiN4YTsJCQk8dGl0bGUgaWQ9InRpdGxlNjYxNzkiPnBhdGgxNTE0NjwvdGl0bGU+JiN4YTsJCQk8cGF0aCBpZD0icGF0aDY2MTgxIiBpbmtzY2FwZTpjb25uZWN0b3ItY3VydmF0dXJlPSIwIiBzdHlsZT0iZmlsbDojMkJDN0Y0OyIgZD0iTTcuMDQsNDAuODZsLTIuOC0yLjhsLTAuNTMtMS41OWwtMi42NS0xLjU5ICAgICBMMCwzNS45M2wxLjU5LDIuNjZsMS41OSwwLjUzTDYsNDEuOTJjLTAuMTQsMC41MSwwLjAxLDEuMDYsMC4zOCwxLjQ0bDQuNzcsNC43N2MwLjU5LDAuNTksMS41NCwwLjU4LDIuMTMsMCAgICAgYzAuNTktMC41OSwwLjU4LTEuNTQsMC0yLjEzYzAsMCwwLDAsMCwwTDguNSw0MS4yM0M4LjEyLDQwLjg1LDcuNTYsNDAuNzEsNy4wNCw0MC44NnoiLz4mI3hhOwkJPC9nPiYjeGE7CTwvZz4mI3hhOzwvZz4mI3hhOzwvc3ZnPg==;" parent="ZfdYoAjNMy2BQfxZGGwY-4" vertex="1">
          <mxGeometry x="63.5" y="120" width="47" height="47" as="geometry"/>
        </mxCell>
        <mxCell id="ZfdYoAjNMy2BQfxZGGwY-7" value="" style="shape=image;verticalLabelPosition=bottom;labelBackgroundColor=#ffffff;verticalAlign=top;aspect=fixed;imageAspect=0;image=data:image/svg+xml,PHN2ZyB4bWxuczpkYz0iaHR0cDovL3B1cmwub3JnL2RjL2VsZW1lbnRzLzEuMS8iIHhtbG5zOmNjPSJodHRwOi8vY3JlYXRpdmVjb21tb25zLm9yZy9ucyMiIHhtbG5zOnJkZj0iaHR0cDovL3d3dy53My5vcmcvMTk5OS8wMi8yMi1yZGYtc3ludGF4LW5zIyIgeG1sbnM6c3ZnPSJodHRwOi8vd3d3LnczLm9yZy8yMDAwL3N2ZyIgeG1sbnM9Imh0dHA6Ly93d3cudzMub3JnLzIwMDAvc3ZnIiB4bWxuczp4bGluaz0iaHR0cDovL3d3dy53My5vcmcvMTk5OS94bGluayIgeG1sbnM6c29kaXBvZGk9Imh0dHA6Ly9zb2RpcG9kaS5zb3VyY2Vmb3JnZS5uZXQvRFREL3NvZGlwb2RpLTAuZHRkIiB4bWxuczppbmtzY2FwZT0iaHR0cDovL3d3dy5pbmtzY2FwZS5vcmcvbmFtZXNwYWNlcy9pbmtzY2FwZSIgdmVyc2lvbj0iMS4xIiBpZD0iTGF5ZXJfMSIgeD0iMHB4IiB5PSIwcHgiIHZpZXdCb3g9IjAgMCAzMS40NDAwMDEgMzMuNzAzNzQzIiB4bWw6c3BhY2U9InByZXNlcnZlIiBzb2RpcG9kaTpkb2NuYW1lPSJzYXBfc2Vfb2RhdGFfcHJvdmlzaW9uaW5nLnN2ZyIgd2lkdGg9IjMxLjQ0MDAwMSIgaGVpZ2h0PSIzMy43MDM3NDMiIGlua3NjYXBlOnZlcnNpb249IjAuOTIuMyAoMjQwNTU0NiwgMjAxOC0wMy0xMSkiPjxtZXRhZGF0YSBpZD0ibWV0YWRhdGE1OTkxNCI+PHJkZjpSREY+PGNjOldvcmsgcmRmOmFib3V0PSIiPjxkYzpmb3JtYXQ+aW1hZ2Uvc3ZnK3htbDwvZGM6Zm9ybWF0PjxkYzp0eXBlIHJkZjpyZXNvdXJjZT0iaHR0cDovL3B1cmwub3JnL2RjL2RjbWl0eXBlL1N0aWxsSW1hZ2UiLz48ZGM6dGl0bGUvPjwvY2M6V29yaz48L3JkZjpSREY+PC9tZXRhZGF0YT48ZGVmcyBpZD0iZGVmczU5OTEyIi8+PHNvZGlwb2RpOm5hbWVkdmlldyBwYWdlY29sb3I9IiNmZmZmZmYiIGJvcmRlcmNvbG9yPSIjNjY2NjY2IiBib3JkZXJvcGFjaXR5PSIxIiBvYmplY3R0b2xlcmFuY2U9IjEwIiBncmlkdG9sZXJhbmNlPSIxMCIgZ3VpZGV0b2xlcmFuY2U9IjEwIiBpbmtzY2FwZTpwYWdlb3BhY2l0eT0iMCIgaW5rc2NhcGU6cGFnZXNoYWRvdz0iMiIgaW5rc2NhcGU6d2luZG93LXdpZHRoPSIxOTIwIiBpbmtzY2FwZTp3aW5kb3ctaGVpZ2h0PSIxMDE3IiBpZD0ibmFtZWR2aWV3NTk5MTAiIHNob3dncmlkPSJmYWxzZSIgZml0LW1hcmdpbi10b3A9IjAiIGZpdC1tYXJnaW4tbGVmdD0iMCIgZml0LW1hcmdpbi1yaWdodD0iMCIgZml0LW1hcmdpbi1ib3R0b209IjAiIGlua3NjYXBlOnpvb209IjEuMDMwMzAzIiBpbmtzY2FwZTpjeD0iLTE4LjEyNSIgaW5rc2NhcGU6Y3k9Ii0xODUuNzg2MjYiIGlua3NjYXBlOndpbmRvdy14PSItOCIgaW5rc2NhcGU6d2luZG93LXk9Ii04IiBpbmtzY2FwZTp3aW5kb3ctbWF4aW1pemVkPSIxIiBpbmtzY2FwZTpjdXJyZW50LWxheWVyPSJMYXllcl8xIi8+JiN4YTsmI3hhOzxnIGlkPSJnNTk5MDciIHRyYW5zZm9ybT0idHJhbnNsYXRlKC0zMTUuNSwtMjAxLjI2KSI+JiN4YTsJPGRlZnMgaWQ9ImRlZnM1OTg3OCI+JiN4YTsJCTxyZWN0IGlkPSJTVkdJRF8zXyIgeD0iMzE1LjUiIHk9IjIwMS4yNTk5OSIgd2lkdGg9IjMzLjk4IiBoZWlnaHQ9IjMzLjk5MDAwMiIvPiYjeGE7CTwvZGVmcz4mI3hhOwk8Y2xpcFBhdGggaWQ9IlNWR0lEXzRfIj4mI3hhOwkJPHVzZSB4bGluazpocmVmPSIjU1ZHSURfM18iIHN0eWxlPSJvdmVyZmxvdzp2aXNpYmxlIiBpZD0idXNlNTk4ODAiIHg9IjAiIHk9IjAiIHdpZHRoPSIxMDAlIiBoZWlnaHQ9IjEwMCUiLz4mI3hhOwk8L2NsaXBQYXRoPiYjeGE7CTxnIGNsaXAtcGF0aD0idXJsKCNTVkdJRF80XykiIGlkPSJnNTk5MDUiPiYjeGE7CQk8ZGVmcyBpZD0iZGVmczU5ODg0Ij4mI3hhOwkJCTxyZWN0IGlkPSJTVkdJRF81XyIgeD0iMzE1LjUiIHk9IjIwMS4yNTk5OSIgd2lkdGg9IjMzLjk5MDAwMiIgaGVpZ2h0PSIzMy45OTAwMDIiLz4mI3hhOwkJPC9kZWZzPiYjeGE7CQk8Y2xpcFBhdGggaWQ9IlNWR0lEXzZfIj4mI3hhOwkJCTx1c2UgeGxpbms6aHJlZj0iI1NWR0lEXzVfIiBzdHlsZT0ib3ZlcmZsb3c6dmlzaWJsZSIgaWQ9InVzZTU5ODg2IiB4PSIwIiB5PSIwIiB3aWR0aD0iMTAwJSIgaGVpZ2h0PSIxMDAlIi8+JiN4YTsJCTwvY2xpcFBhdGg+JiN4YTsJCTxwYXRoIHN0eWxlPSJmaWxsOiMwMDkyZDEiIGQ9Im0gMzM1LjE0LDIwMS4yNiBoIDEwLjEyIGMgMC45LDAgMS42OCwwLjc4IDEuNjgsMS42OCB2IDEuMTQgYyAwLDAuOSAtMC43OCwxLjY4IC0xLjY4LDEuNjggaCAtMTAuMTIgYyAtMC45LDAgLTEuNjgsLTAuNzggLTEuNjgsLTEuNjggdiAtMS4xNCBjIDAuMDEsLTAuOSAwLjc5LC0xLjY4IDEuNjgsLTEuNjggeiIgY2xpcC1wYXRoPSJ1cmwoI1NWR0lEXzZfKSIgaWQ9InBhdGg1OTg4OSIgaW5rc2NhcGU6Y29ubmVjdG9yLWN1cnZhdHVyZT0iMCIvPiYjeGE7CQk8cGF0aCBzdHlsZT0iZmlsbDojMDA5MmQxIiBkPSJtIDMzNS4xNCwyMDguMDMgaCAxMC4xMiBjIDAuOSwwIDEuNjgsMC43MiAxLjY4LDEuNjggdiAxLjA4IGMgMCwwLjk2IC0wLjc4LDEuNzQgLTEuNjgsMS43NCBoIC0xMC4xMiBjIC0wLjksMCAtMS42OCwtMC43OCAtMS42OCwtMS43NCB2IC0xLjA4IGMgMC4wMSwtMC45NiAwLjc5LC0xLjY4IDEuNjgsLTEuNjggeiIgY2xpcC1wYXRoPSJ1cmwoI1NWR0lEXzZfKSIgaWQ9InBhdGg1OTg5MSIgaW5rc2NhcGU6Y29ubmVjdG9yLWN1cnZhdHVyZT0iMCIvPiYjeGE7CQk8cGF0aCBzdHlsZT0iZmlsbDojMDA5MmQxIiBkPSJtIDMzNS4xNCwyMTQuNzQgaCAxMC4xMiBjIDAuOSwwIDEuNjgsMC43OCAxLjY4LDEuNjggdiAxLjE0IGMgMCwwLjkgLTAuNzgsMS42OCAtMS42OCwxLjY4IGggLTEwLjEyIGMgLTAuOSwwIC0xLjY4LC0wLjc4IC0xLjY4LC0xLjY4IHYgLTEuMTQgYyAwLjAxLC0wLjkgMC43OSwtMS42OCAxLjY4LC0xLjY4IHoiIGNsaXAtcGF0aD0idXJsKCNTVkdJRF82XykiIGlkPSJwYXRoNTk4OTMiIGlua3NjYXBlOmNvbm5lY3Rvci1jdXJ2YXR1cmU9IjAiLz4mI3hhOwkJPHBhdGggc3R5bGU9ImZpbGw6IzAwOTJkMSIgZD0ibSAzMzUuMTQsMjIxLjUxIGggMTAuMTIgYyAwLjksMCAxLjY4LDAuNzIgMS42OCwxLjY4IHYgMS4wOCBjIDAsMC45NiAtMC43OCwxLjc0IC0xLjY4LDEuNzQgaCAtMTAuMTIgYyAtMC45LDAgLTEuNjgsLTAuNzggLTEuNjgsLTEuNzQgdiAtMS4wOCBjIDAuMDEsLTAuOTYgMC43OSwtMS42OCAxLjY4LC0xLjY4IHoiIGNsaXAtcGF0aD0idXJsKCNTVkdJRF82XykiIGlkPSJwYXRoNTk4OTUiIGlua3NjYXBlOmNvbm5lY3Rvci1jdXJ2YXR1cmU9IjAiLz4mI3hhOwkJPHBhdGggc3R5bGU9ImZpbGw6IzAwOTJkMSIgZD0ibSAzMTcuMTgsMjE0Ljc0IGggMTAuMTIgYyAwLjksMCAxLjY4LDAuNzggMS42OCwxLjY4IHYgMS4xNCBjIDAsMC45IC0wLjc4LDEuNjggLTEuNjgsMS42OCBoIC0xMC4xMiBjIC0wLjksMCAtMS42OCwtMC43OCAtMS42OCwtMS42OCB2IC0xLjE0IGMgMCwtMC45IDAuNzgsLTEuNjggMS42OCwtMS42OCB6IiBjbGlwLXBhdGg9InVybCgjU1ZHSURfNl8pIiBpZD0icGF0aDU5ODk3IiBpbmtzY2FwZTpjb25uZWN0b3ItY3VydmF0dXJlPSIwIi8+JiN4YTsJCTxwYXRoIHN0eWxlPSJmaWxsOiMwMDkyZDEiIGQ9Im0gMzE3LjE4LDIwOC4wMyBoIDEwLjEyIGMgMC45LDAgMS42OCwwLjcyIDEuNjgsMS42OCB2IDEuMDggYyAwLDAuOTYgLTAuNzgsMS43NCAtMS42OCwxLjc0IGggLTEwLjEyIGMgLTAuOSwwIC0xLjY4LC0wLjc4IC0xLjY4LC0xLjc0IHYgLTEuMDggYyAwLC0wLjk2IDAuNzgsLTEuNjggMS42OCwtMS42OCB6IiBjbGlwLXBhdGg9InVybCgjU1ZHSURfNl8pIiBpZD0icGF0aDU5ODk5IiBpbmtzY2FwZTpjb25uZWN0b3ItY3VydmF0dXJlPSIwIi8+JiN4YTsJCTxwYXRoIHN0eWxlPSJmaWxsOiMwMDkyZDEiIGQ9Im0gMzE3LjE4LDIwMS4yNiBoIDEwLjEyIGMgMC45LDAgMS42OCwwLjc4IDEuNjgsMS42OCB2IDEuMTQgYyAwLDAuOSAtMC43OCwxLjY4IC0xLjY4LDEuNjggaCAtMTAuMTIgYyAtMC45LDAgLTEuNjgsLTAuNzggLTEuNjgsLTEuNjggdiAtMS4xNCBjIDAsLTAuOSAwLjc4LC0xLjY4IDEuNjgsLTEuNjggeiIgY2xpcC1wYXRoPSJ1cmwoI1NWR0lEXzZfKSIgaWQ9InBhdGg1OTkwMSIgaW5rc2NhcGU6Y29ubmVjdG9yLWN1cnZhdHVyZT0iMCIvPiYjeGE7CQk8cGF0aCBzdHlsZT0iZmlsbDojNWE3YTk0IiBkPSJtIDMyMi4yNywyMjEuNTEgYyAtNi4wNSwwIC05LjA0LDcuMjUgLTQuNzksMTEuNSA0LjI1LDQuMTkgMTEuNSwxLjIgMTEuNSwtNC43OSAwLC0zLjcyIC0zLC02LjcxIC02LjcxLC02LjcxIHogbSAwLDIuMjEgYyAzLjk1LDAgNS45OSw0Ljg1IDMuMTcsNy42NyAtMi44NywyLjgyIC03LjY3LDAuODQgLTcuNjcsLTMuMTcgMC4wMSwtMi40NiAxLjk4LC00LjUgNC41LC00LjUgeiIgY2xpcC1wYXRoPSJ1cmwoI1NWR0lEXzZfKSIgaWQ9InBhdGg1OTkwMyIgaW5rc2NhcGU6Y29ubmVjdG9yLWN1cnZhdHVyZT0iMCIvPiYjeGE7CTwvZz4mI3hhOzwvZz4mI3hhOzwvc3ZnPg==;" parent="ZfdYoAjNMy2BQfxZGGwY-4" vertex="1">
          <mxGeometry x="24.5" y="60" width="31" height="34" as="geometry"/>
        </mxCell>
        <mxCell id="ZfdYoAjNMy2BQfxZGGwY-8" value="" style="shape=image;verticalLabelPosition=bottom;labelBackgroundColor=#ffffff;verticalAlign=top;aspect=fixed;imageAspect=0;image=data:image/svg+xml,PHN2ZyB4bWxuczpkYz0iaHR0cDovL3B1cmwub3JnL2RjL2VsZW1lbnRzLzEuMS8iIHhtbG5zOmNjPSJodHRwOi8vY3JlYXRpdmVjb21tb25zLm9yZy9ucyMiIHhtbG5zOnJkZj0iaHR0cDovL3d3dy53My5vcmcvMTk5OS8wMi8yMi1yZGYtc3ludGF4LW5zIyIgeG1sbnM6c3ZnPSJodHRwOi8vd3d3LnczLm9yZy8yMDAwL3N2ZyIgeG1sbnM9Imh0dHA6Ly93d3cudzMub3JnLzIwMDAvc3ZnIiB4bWxuczp4bGluaz0iaHR0cDovL3d3dy53My5vcmcvMTk5OS94bGluayIgeG1sbnM6c29kaXBvZGk9Imh0dHA6Ly9zb2RpcG9kaS5zb3VyY2Vmb3JnZS5uZXQvRFREL3NvZGlwb2RpLTAuZHRkIiB4bWxuczppbmtzY2FwZT0iaHR0cDovL3d3dy5pbmtzY2FwZS5vcmcvbmFtZXNwYWNlcy9pbmtzY2FwZSIgdmVyc2lvbj0iMS4xIiBpZD0iTGF5ZXJfMSIgeD0iMHB4IiB5PSIwcHgiIHZpZXdCb3g9IjAgMCAzMS40NDAwMDEgMzMuNzAzNzQzIiB4bWw6c3BhY2U9InByZXNlcnZlIiBzb2RpcG9kaTpkb2NuYW1lPSJzYXBfc2Vfb2RhdGFfcHJvdmlzaW9uaW5nLnN2ZyIgd2lkdGg9IjMxLjQ0MDAwMSIgaGVpZ2h0PSIzMy43MDM3NDMiIGlua3NjYXBlOnZlcnNpb249IjAuOTIuMyAoMjQwNTU0NiwgMjAxOC0wMy0xMSkiPjxtZXRhZGF0YSBpZD0ibWV0YWRhdGE1OTkxNCI+PHJkZjpSREY+PGNjOldvcmsgcmRmOmFib3V0PSIiPjxkYzpmb3JtYXQ+aW1hZ2Uvc3ZnK3htbDwvZGM6Zm9ybWF0PjxkYzp0eXBlIHJkZjpyZXNvdXJjZT0iaHR0cDovL3B1cmwub3JnL2RjL2RjbWl0eXBlL1N0aWxsSW1hZ2UiLz48ZGM6dGl0bGUvPjwvY2M6V29yaz48L3JkZjpSREY+PC9tZXRhZGF0YT48ZGVmcyBpZD0iZGVmczU5OTEyIi8+PHNvZGlwb2RpOm5hbWVkdmlldyBwYWdlY29sb3I9IiNmZmZmZmYiIGJvcmRlcmNvbG9yPSIjNjY2NjY2IiBib3JkZXJvcGFjaXR5PSIxIiBvYmplY3R0b2xlcmFuY2U9IjEwIiBncmlkdG9sZXJhbmNlPSIxMCIgZ3VpZGV0b2xlcmFuY2U9IjEwIiBpbmtzY2FwZTpwYWdlb3BhY2l0eT0iMCIgaW5rc2NhcGU6cGFnZXNoYWRvdz0iMiIgaW5rc2NhcGU6d2luZG93LXdpZHRoPSIxOTIwIiBpbmtzY2FwZTp3aW5kb3ctaGVpZ2h0PSIxMDE3IiBpZD0ibmFtZWR2aWV3NTk5MTAiIHNob3dncmlkPSJmYWxzZSIgZml0LW1hcmdpbi10b3A9IjAiIGZpdC1tYXJnaW4tbGVmdD0iMCIgZml0LW1hcmdpbi1yaWdodD0iMCIgZml0LW1hcmdpbi1ib3R0b209IjAiIGlua3NjYXBlOnpvb209IjEuMDMwMzAzIiBpbmtzY2FwZTpjeD0iLTE4LjEyNSIgaW5rc2NhcGU6Y3k9Ii0xODUuNzg2MjYiIGlua3NjYXBlOndpbmRvdy14PSItOCIgaW5rc2NhcGU6d2luZG93LXk9Ii04IiBpbmtzY2FwZTp3aW5kb3ctbWF4aW1pemVkPSIxIiBpbmtzY2FwZTpjdXJyZW50LWxheWVyPSJMYXllcl8xIi8+JiN4YTsmI3hhOzxnIGlkPSJnNTk5MDciIHRyYW5zZm9ybT0idHJhbnNsYXRlKC0zMTUuNSwtMjAxLjI2KSI+JiN4YTsJPGRlZnMgaWQ9ImRlZnM1OTg3OCI+JiN4YTsJCTxyZWN0IGlkPSJTVkdJRF8zXyIgeD0iMzE1LjUiIHk9IjIwMS4yNTk5OSIgd2lkdGg9IjMzLjk4IiBoZWlnaHQ9IjMzLjk5MDAwMiIvPiYjeGE7CTwvZGVmcz4mI3hhOwk8Y2xpcFBhdGggaWQ9IlNWR0lEXzRfIj4mI3hhOwkJPHVzZSB4bGluazpocmVmPSIjU1ZHSURfM18iIHN0eWxlPSJvdmVyZmxvdzp2aXNpYmxlIiBpZD0idXNlNTk4ODAiIHg9IjAiIHk9IjAiIHdpZHRoPSIxMDAlIiBoZWlnaHQ9IjEwMCUiLz4mI3hhOwk8L2NsaXBQYXRoPiYjeGE7CTxnIGNsaXAtcGF0aD0idXJsKCNTVkdJRF80XykiIGlkPSJnNTk5MDUiPiYjeGE7CQk8ZGVmcyBpZD0iZGVmczU5ODg0Ij4mI3hhOwkJCTxyZWN0IGlkPSJTVkdJRF81XyIgeD0iMzE1LjUiIHk9IjIwMS4yNTk5OSIgd2lkdGg9IjMzLjk5MDAwMiIgaGVpZ2h0PSIzMy45OTAwMDIiLz4mI3hhOwkJPC9kZWZzPiYjeGE7CQk8Y2xpcFBhdGggaWQ9IlNWR0lEXzZfIj4mI3hhOwkJCTx1c2UgeGxpbms6aHJlZj0iI1NWR0lEXzVfIiBzdHlsZT0ib3ZlcmZsb3c6dmlzaWJsZSIgaWQ9InVzZTU5ODg2IiB4PSIwIiB5PSIwIiB3aWR0aD0iMTAwJSIgaGVpZ2h0PSIxMDAlIi8+JiN4YTsJCTwvY2xpcFBhdGg+JiN4YTsJCTxwYXRoIHN0eWxlPSJmaWxsOiMwMDkyZDEiIGQ9Im0gMzM1LjE0LDIwMS4yNiBoIDEwLjEyIGMgMC45LDAgMS42OCwwLjc4IDEuNjgsMS42OCB2IDEuMTQgYyAwLDAuOSAtMC43OCwxLjY4IC0xLjY4LDEuNjggaCAtMTAuMTIgYyAtMC45LDAgLTEuNjgsLTAuNzggLTEuNjgsLTEuNjggdiAtMS4xNCBjIDAuMDEsLTAuOSAwLjc5LC0xLjY4IDEuNjgsLTEuNjggeiIgY2xpcC1wYXRoPSJ1cmwoI1NWR0lEXzZfKSIgaWQ9InBhdGg1OTg4OSIgaW5rc2NhcGU6Y29ubmVjdG9yLWN1cnZhdHVyZT0iMCIvPiYjeGE7CQk8cGF0aCBzdHlsZT0iZmlsbDojMDA5MmQxIiBkPSJtIDMzNS4xNCwyMDguMDMgaCAxMC4xMiBjIDAuOSwwIDEuNjgsMC43MiAxLjY4LDEuNjggdiAxLjA4IGMgMCwwLjk2IC0wLjc4LDEuNzQgLTEuNjgsMS43NCBoIC0xMC4xMiBjIC0wLjksMCAtMS42OCwtMC43OCAtMS42OCwtMS43NCB2IC0xLjA4IGMgMC4wMSwtMC45NiAwLjc5LC0xLjY4IDEuNjgsLTEuNjggeiIgY2xpcC1wYXRoPSJ1cmwoI1NWR0lEXzZfKSIgaWQ9InBhdGg1OTg5MSIgaW5rc2NhcGU6Y29ubmVjdG9yLWN1cnZhdHVyZT0iMCIvPiYjeGE7CQk8cGF0aCBzdHlsZT0iZmlsbDojMDA5MmQxIiBkPSJtIDMzNS4xNCwyMTQuNzQgaCAxMC4xMiBjIDAuOSwwIDEuNjgsMC43OCAxLjY4LDEuNjggdiAxLjE0IGMgMCwwLjkgLTAuNzgsMS42OCAtMS42OCwxLjY4IGggLTEwLjEyIGMgLTAuOSwwIC0xLjY4LC0wLjc4IC0xLjY4LC0xLjY4IHYgLTEuMTQgYyAwLjAxLC0wLjkgMC43OSwtMS42OCAxLjY4LC0xLjY4IHoiIGNsaXAtcGF0aD0idXJsKCNTVkdJRF82XykiIGlkPSJwYXRoNTk4OTMiIGlua3NjYXBlOmNvbm5lY3Rvci1jdXJ2YXR1cmU9IjAiLz4mI3hhOwkJPHBhdGggc3R5bGU9ImZpbGw6IzAwOTJkMSIgZD0ibSAzMzUuMTQsMjIxLjUxIGggMTAuMTIgYyAwLjksMCAxLjY4LDAuNzIgMS42OCwxLjY4IHYgMS4wOCBjIDAsMC45NiAtMC43OCwxLjc0IC0xLjY4LDEuNzQgaCAtMTAuMTIgYyAtMC45LDAgLTEuNjgsLTAuNzggLTEuNjgsLTEuNzQgdiAtMS4wOCBjIDAuMDEsLTAuOTYgMC43OSwtMS42OCAxLjY4LC0xLjY4IHoiIGNsaXAtcGF0aD0idXJsKCNTVkdJRF82XykiIGlkPSJwYXRoNTk4OTUiIGlua3NjYXBlOmNvbm5lY3Rvci1jdXJ2YXR1cmU9IjAiLz4mI3hhOwkJPHBhdGggc3R5bGU9ImZpbGw6IzAwOTJkMSIgZD0ibSAzMTcuMTgsMjE0Ljc0IGggMTAuMTIgYyAwLjksMCAxLjY4LDAuNzggMS42OCwxLjY4IHYgMS4xNCBjIDAsMC45IC0wLjc4LDEuNjggLTEuNjgsMS42OCBoIC0xMC4xMiBjIC0wLjksMCAtMS42OCwtMC43OCAtMS42OCwtMS42OCB2IC0xLjE0IGMgMCwtMC45IDAuNzgsLTEuNjggMS42OCwtMS42OCB6IiBjbGlwLXBhdGg9InVybCgjU1ZHSURfNl8pIiBpZD0icGF0aDU5ODk3IiBpbmtzY2FwZTpjb25uZWN0b3ItY3VydmF0dXJlPSIwIi8+JiN4YTsJCTxwYXRoIHN0eWxlPSJmaWxsOiMwMDkyZDEiIGQ9Im0gMzE3LjE4LDIwOC4wMyBoIDEwLjEyIGMgMC45LDAgMS42OCwwLjcyIDEuNjgsMS42OCB2IDEuMDggYyAwLDAuOTYgLTAuNzgsMS43NCAtMS42OCwxLjc0IGggLTEwLjEyIGMgLTAuOSwwIC0xLjY4LC0wLjc4IC0xLjY4LC0xLjc0IHYgLTEuMDggYyAwLC0wLjk2IDAuNzgsLTEuNjggMS42OCwtMS42OCB6IiBjbGlwLXBhdGg9InVybCgjU1ZHSURfNl8pIiBpZD0icGF0aDU5ODk5IiBpbmtzY2FwZTpjb25uZWN0b3ItY3VydmF0dXJlPSIwIi8+JiN4YTsJCTxwYXRoIHN0eWxlPSJmaWxsOiMwMDkyZDEiIGQ9Im0gMzE3LjE4LDIwMS4yNiBoIDEwLjEyIGMgMC45LDAgMS42OCwwLjc4IDEuNjgsMS42OCB2IDEuMTQgYyAwLDAuOSAtMC43OCwxLjY4IC0xLjY4LDEuNjggaCAtMTAuMTIgYyAtMC45LDAgLTEuNjgsLTAuNzggLTEuNjgsLTEuNjggdiAtMS4xNCBjIDAsLTAuOSAwLjc4LC0xLjY4IDEuNjgsLTEuNjggeiIgY2xpcC1wYXRoPSJ1cmwoI1NWR0lEXzZfKSIgaWQ9InBhdGg1OTkwMSIgaW5rc2NhcGU6Y29ubmVjdG9yLWN1cnZhdHVyZT0iMCIvPiYjeGE7CQk8cGF0aCBzdHlsZT0iZmlsbDojNWE3YTk0IiBkPSJtIDMyMi4yNywyMjEuNTEgYyAtNi4wNSwwIC05LjA0LDcuMjUgLTQuNzksMTEuNSA0LjI1LDQuMTkgMTEuNSwxLjIgMTEuNSwtNC43OSAwLC0zLjcyIC0zLC02LjcxIC02LjcxLC02LjcxIHogbSAwLDIuMjEgYyAzLjk1LDAgNS45OSw0Ljg1IDMuMTcsNy42NyAtMi44NywyLjgyIC03LjY3LDAuODQgLTcuNjcsLTMuMTcgMC4wMSwtMi40NiAxLjk4LC00LjUgNC41LC00LjUgeiIgY2xpcC1wYXRoPSJ1cmwoI1NWR0lEXzZfKSIgaWQ9InBhdGg1OTkwMyIgaW5rc2NhcGU6Y29ubmVjdG9yLWN1cnZhdHVyZT0iMCIvPiYjeGE7CTwvZz4mI3hhOzwvZz4mI3hhOzwvc3ZnPg==;" parent="ZfdYoAjNMy2BQfxZGGwY-4" vertex="1">
          <mxGeometry x="71.5" y="60" width="31" height="34" as="geometry"/>
        </mxCell>
        <mxCell id="ZfdYoAjNMy2BQfxZGGwY-9" value="" style="shape=image;verticalLabelPosition=bottom;labelBackgroundColor=#ffffff;verticalAlign=top;aspect=fixed;imageAspect=0;image=data:image/svg+xml,PHN2ZyB4bWxuczpkYz0iaHR0cDovL3B1cmwub3JnL2RjL2VsZW1lbnRzLzEuMS8iIHhtbG5zOmNjPSJodHRwOi8vY3JlYXRpdmVjb21tb25zLm9yZy9ucyMiIHhtbG5zOnJkZj0iaHR0cDovL3d3dy53My5vcmcvMTk5OS8wMi8yMi1yZGYtc3ludGF4LW5zIyIgeG1sbnM6c3ZnPSJodHRwOi8vd3d3LnczLm9yZy8yMDAwL3N2ZyIgeG1sbnM9Imh0dHA6Ly93d3cudzMub3JnLzIwMDAvc3ZnIiB4bWxuczp4bGluaz0iaHR0cDovL3d3dy53My5vcmcvMTk5OS94bGluayIgeG1sbnM6c29kaXBvZGk9Imh0dHA6Ly9zb2RpcG9kaS5zb3VyY2Vmb3JnZS5uZXQvRFREL3NvZGlwb2RpLTAuZHRkIiB4bWxuczppbmtzY2FwZT0iaHR0cDovL3d3dy5pbmtzY2FwZS5vcmcvbmFtZXNwYWNlcy9pbmtzY2FwZSIgdmVyc2lvbj0iMS4xIiBpZD0iTGF5ZXJfMSIgeD0iMHB4IiB5PSIwcHgiIHZpZXdCb3g9IjAgMCAzMS40NDAwMDEgMzMuNzAzNzQzIiB4bWw6c3BhY2U9InByZXNlcnZlIiBzb2RpcG9kaTpkb2NuYW1lPSJzYXBfc2Vfb2RhdGFfcHJvdmlzaW9uaW5nLnN2ZyIgd2lkdGg9IjMxLjQ0MDAwMSIgaGVpZ2h0PSIzMy43MDM3NDMiIGlua3NjYXBlOnZlcnNpb249IjAuOTIuMyAoMjQwNTU0NiwgMjAxOC0wMy0xMSkiPjxtZXRhZGF0YSBpZD0ibWV0YWRhdGE1OTkxNCI+PHJkZjpSREY+PGNjOldvcmsgcmRmOmFib3V0PSIiPjxkYzpmb3JtYXQ+aW1hZ2Uvc3ZnK3htbDwvZGM6Zm9ybWF0PjxkYzp0eXBlIHJkZjpyZXNvdXJjZT0iaHR0cDovL3B1cmwub3JnL2RjL2RjbWl0eXBlL1N0aWxsSW1hZ2UiLz48ZGM6dGl0bGUvPjwvY2M6V29yaz48L3JkZjpSREY+PC9tZXRhZGF0YT48ZGVmcyBpZD0iZGVmczU5OTEyIi8+PHNvZGlwb2RpOm5hbWVkdmlldyBwYWdlY29sb3I9IiNmZmZmZmYiIGJvcmRlcmNvbG9yPSIjNjY2NjY2IiBib3JkZXJvcGFjaXR5PSIxIiBvYmplY3R0b2xlcmFuY2U9IjEwIiBncmlkdG9sZXJhbmNlPSIxMCIgZ3VpZGV0b2xlcmFuY2U9IjEwIiBpbmtzY2FwZTpwYWdlb3BhY2l0eT0iMCIgaW5rc2NhcGU6cGFnZXNoYWRvdz0iMiIgaW5rc2NhcGU6d2luZG93LXdpZHRoPSIxOTIwIiBpbmtzY2FwZTp3aW5kb3ctaGVpZ2h0PSIxMDE3IiBpZD0ibmFtZWR2aWV3NTk5MTAiIHNob3dncmlkPSJmYWxzZSIgZml0LW1hcmdpbi10b3A9IjAiIGZpdC1tYXJnaW4tbGVmdD0iMCIgZml0LW1hcmdpbi1yaWdodD0iMCIgZml0LW1hcmdpbi1ib3R0b209IjAiIGlua3NjYXBlOnpvb209IjEuMDMwMzAzIiBpbmtzY2FwZTpjeD0iLTE4LjEyNSIgaW5rc2NhcGU6Y3k9Ii0xODUuNzg2MjYiIGlua3NjYXBlOndpbmRvdy14PSItOCIgaW5rc2NhcGU6d2luZG93LXk9Ii04IiBpbmtzY2FwZTp3aW5kb3ctbWF4aW1pemVkPSIxIiBpbmtzY2FwZTpjdXJyZW50LWxheWVyPSJMYXllcl8xIi8+JiN4YTsmI3hhOzxnIGlkPSJnNTk5MDciIHRyYW5zZm9ybT0idHJhbnNsYXRlKC0zMTUuNSwtMjAxLjI2KSI+JiN4YTsJPGRlZnMgaWQ9ImRlZnM1OTg3OCI+JiN4YTsJCTxyZWN0IGlkPSJTVkdJRF8zXyIgeD0iMzE1LjUiIHk9IjIwMS4yNTk5OSIgd2lkdGg9IjMzLjk4IiBoZWlnaHQ9IjMzLjk5MDAwMiIvPiYjeGE7CTwvZGVmcz4mI3hhOwk8Y2xpcFBhdGggaWQ9IlNWR0lEXzRfIj4mI3hhOwkJPHVzZSB4bGluazpocmVmPSIjU1ZHSURfM18iIHN0eWxlPSJvdmVyZmxvdzp2aXNpYmxlIiBpZD0idXNlNTk4ODAiIHg9IjAiIHk9IjAiIHdpZHRoPSIxMDAlIiBoZWlnaHQ9IjEwMCUiLz4mI3hhOwk8L2NsaXBQYXRoPiYjeGE7CTxnIGNsaXAtcGF0aD0idXJsKCNTVkdJRF80XykiIGlkPSJnNTk5MDUiPiYjeGE7CQk8ZGVmcyBpZD0iZGVmczU5ODg0Ij4mI3hhOwkJCTxyZWN0IGlkPSJTVkdJRF81XyIgeD0iMzE1LjUiIHk9IjIwMS4yNTk5OSIgd2lkdGg9IjMzLjk5MDAwMiIgaGVpZ2h0PSIzMy45OTAwMDIiLz4mI3hhOwkJPC9kZWZzPiYjeGE7CQk8Y2xpcFBhdGggaWQ9IlNWR0lEXzZfIj4mI3hhOwkJCTx1c2UgeGxpbms6aHJlZj0iI1NWR0lEXzVfIiBzdHlsZT0ib3ZlcmZsb3c6dmlzaWJsZSIgaWQ9InVzZTU5ODg2IiB4PSIwIiB5PSIwIiB3aWR0aD0iMTAwJSIgaGVpZ2h0PSIxMDAlIi8+JiN4YTsJCTwvY2xpcFBhdGg+JiN4YTsJCTxwYXRoIHN0eWxlPSJmaWxsOiMwMDkyZDEiIGQ9Im0gMzM1LjE0LDIwMS4yNiBoIDEwLjEyIGMgMC45LDAgMS42OCwwLjc4IDEuNjgsMS42OCB2IDEuMTQgYyAwLDAuOSAtMC43OCwxLjY4IC0xLjY4LDEuNjggaCAtMTAuMTIgYyAtMC45LDAgLTEuNjgsLTAuNzggLTEuNjgsLTEuNjggdiAtMS4xNCBjIDAuMDEsLTAuOSAwLjc5LC0xLjY4IDEuNjgsLTEuNjggeiIgY2xpcC1wYXRoPSJ1cmwoI1NWR0lEXzZfKSIgaWQ9InBhdGg1OTg4OSIgaW5rc2NhcGU6Y29ubmVjdG9yLWN1cnZhdHVyZT0iMCIvPiYjeGE7CQk8cGF0aCBzdHlsZT0iZmlsbDojMDA5MmQxIiBkPSJtIDMzNS4xNCwyMDguMDMgaCAxMC4xMiBjIDAuOSwwIDEuNjgsMC43MiAxLjY4LDEuNjggdiAxLjA4IGMgMCwwLjk2IC0wLjc4LDEuNzQgLTEuNjgsMS43NCBoIC0xMC4xMiBjIC0wLjksMCAtMS42OCwtMC43OCAtMS42OCwtMS43NCB2IC0xLjA4IGMgMC4wMSwtMC45NiAwLjc5LC0xLjY4IDEuNjgsLTEuNjggeiIgY2xpcC1wYXRoPSJ1cmwoI1NWR0lEXzZfKSIgaWQ9InBhdGg1OTg5MSIgaW5rc2NhcGU6Y29ubmVjdG9yLWN1cnZhdHVyZT0iMCIvPiYjeGE7CQk8cGF0aCBzdHlsZT0iZmlsbDojMDA5MmQxIiBkPSJtIDMzNS4xNCwyMTQuNzQgaCAxMC4xMiBjIDAuOSwwIDEuNjgsMC43OCAxLjY4LDEuNjggdiAxLjE0IGMgMCwwLjkgLTAuNzgsMS42OCAtMS42OCwxLjY4IGggLTEwLjEyIGMgLTAuOSwwIC0xLjY4LC0wLjc4IC0xLjY4LC0xLjY4IHYgLTEuMTQgYyAwLjAxLC0wLjkgMC43OSwtMS42OCAxLjY4LC0xLjY4IHoiIGNsaXAtcGF0aD0idXJsKCNTVkdJRF82XykiIGlkPSJwYXRoNTk4OTMiIGlua3NjYXBlOmNvbm5lY3Rvci1jdXJ2YXR1cmU9IjAiLz4mI3hhOwkJPHBhdGggc3R5bGU9ImZpbGw6IzAwOTJkMSIgZD0ibSAzMzUuMTQsMjIxLjUxIGggMTAuMTIgYyAwLjksMCAxLjY4LDAuNzIgMS42OCwxLjY4IHYgMS4wOCBjIDAsMC45NiAtMC43OCwxLjc0IC0xLjY4LDEuNzQgaCAtMTAuMTIgYyAtMC45LDAgLTEuNjgsLTAuNzggLTEuNjgsLTEuNzQgdiAtMS4wOCBjIDAuMDEsLTAuOTYgMC43OSwtMS42OCAxLjY4LC0xLjY4IHoiIGNsaXAtcGF0aD0idXJsKCNTVkdJRF82XykiIGlkPSJwYXRoNTk4OTUiIGlua3NjYXBlOmNvbm5lY3Rvci1jdXJ2YXR1cmU9IjAiLz4mI3hhOwkJPHBhdGggc3R5bGU9ImZpbGw6IzAwOTJkMSIgZD0ibSAzMTcuMTgsMjE0Ljc0IGggMTAuMTIgYyAwLjksMCAxLjY4LDAuNzggMS42OCwxLjY4IHYgMS4xNCBjIDAsMC45IC0wLjc4LDEuNjggLTEuNjgsMS42OCBoIC0xMC4xMiBjIC0wLjksMCAtMS42OCwtMC43OCAtMS42OCwtMS42OCB2IC0xLjE0IGMgMCwtMC45IDAuNzgsLTEuNjggMS42OCwtMS42OCB6IiBjbGlwLXBhdGg9InVybCgjU1ZHSURfNl8pIiBpZD0icGF0aDU5ODk3IiBpbmtzY2FwZTpjb25uZWN0b3ItY3VydmF0dXJlPSIwIi8+JiN4YTsJCTxwYXRoIHN0eWxlPSJmaWxsOiMwMDkyZDEiIGQ9Im0gMzE3LjE4LDIwOC4wMyBoIDEwLjEyIGMgMC45LDAgMS42OCwwLjcyIDEuNjgsMS42OCB2IDEuMDggYyAwLDAuOTYgLTAuNzgsMS43NCAtMS42OCwxLjc0IGggLTEwLjEyIGMgLTAuOSwwIC0xLjY4LC0wLjc4IC0xLjY4LC0xLjc0IHYgLTEuMDggYyAwLC0wLjk2IDAuNzgsLTEuNjggMS42OCwtMS42OCB6IiBjbGlwLXBhdGg9InVybCgjU1ZHSURfNl8pIiBpZD0icGF0aDU5ODk5IiBpbmtzY2FwZTpjb25uZWN0b3ItY3VydmF0dXJlPSIwIi8+JiN4YTsJCTxwYXRoIHN0eWxlPSJmaWxsOiMwMDkyZDEiIGQ9Im0gMzE3LjE4LDIwMS4yNiBoIDEwLjEyIGMgMC45LDAgMS42OCwwLjc4IDEuNjgsMS42OCB2IDEuMTQgYyAwLDAuOSAtMC43OCwxLjY4IC0xLjY4LDEuNjggaCAtMTAuMTIgYyAtMC45LDAgLTEuNjgsLTAuNzggLTEuNjgsLTEuNjggdiAtMS4xNCBjIDAsLTAuOSAwLjc4LC0xLjY4IDEuNjgsLTEuNjggeiIgY2xpcC1wYXRoPSJ1cmwoI1NWR0lEXzZfKSIgaWQ9InBhdGg1OTkwMSIgaW5rc2NhcGU6Y29ubmVjdG9yLWN1cnZhdHVyZT0iMCIvPiYjeGE7CQk8cGF0aCBzdHlsZT0iZmlsbDojNWE3YTk0IiBkPSJtIDMyMi4yNywyMjEuNTEgYyAtNi4wNSwwIC05LjA0LDcuMjUgLTQuNzksMTEuNSA0LjI1LDQuMTkgMTEuNSwxLjIgMTEuNSwtNC43OSAwLC0zLjcyIC0zLC02LjcxIC02LjcxLC02LjcxIHogbSAwLDIuMjEgYyAzLjk1LDAgNS45OSw0Ljg1IDMuMTcsNy42NyAtMi44NywyLjgyIC03LjY3LDAuODQgLTcuNjcsLTMuMTcgMC4wMSwtMi40NiAxLjk4LC00LjUgNC41LC00LjUgeiIgY2xpcC1wYXRoPSJ1cmwoI1NWR0lEXzZfKSIgaWQ9InBhdGg1OTkwMyIgaW5rc2NhcGU6Y29ubmVjdG9yLWN1cnZhdHVyZT0iMCIvPiYjeGE7CTwvZz4mI3hhOzwvZz4mI3hhOzwvc3ZnPg==;" parent="ZfdYoAjNMy2BQfxZGGwY-4" vertex="1">
          <mxGeometry x="119" y="60" width="31" height="34" as="geometry"/>
        </mxCell>
        <mxCell id="ZfdYoAjNMy2BQfxZGGwY-10" value="名片信息" style="text;html=1;strokeColor=none;fillColor=none;align=center;verticalAlign=middle;whiteSpace=wrap;rounded=0;" parent="ZfdYoAjNMy2BQfxZGGwY-4" vertex="1">
          <mxGeometry x="56" y="30" width="64" height="20" as="geometry"/>
        </mxCell>
        <mxCell id="ZfdYoAjNMy2BQfxZGGwY-11" value="单位2" style="text;html=1;strokeColor=none;fillColor=none;align=center;verticalAlign=middle;whiteSpace=wrap;rounded=0;" parent="ZfdYoAjNMy2BQfxZGGwY-4" vertex="1">
          <mxGeometry x="63.5" y="220" width="40" height="20" as="geometry"/>
        </mxCell>
        <mxCell id="ZfdYoAjNMy2BQfxZGGwY-20" value="" style="shape=image;html=1;verticalAlign=top;verticalLabelPosition=bottom;labelBackgroundColor=#ffffff;imageAspect=0;aspect=fixed;image=https://cdn2.iconfinder.com/data/icons/business-process-1/512/value_chain-128.png" parent="1" vertex="1">
          <mxGeometry x="66" y="460" width="128" height="128" as="geometry"/>
        </mxCell>
        <mxCell id="ZfdYoAjNMy2BQfxZGGwY-21" value="" style="shape=image;html=1;verticalAlign=top;verticalLabelPosition=bottom;labelBackgroundColor=#ffffff;imageAspect=0;aspect=fixed;image=https://cdn2.iconfinder.com/data/icons/business-process-1/512/value_chain-128.png" parent="1" vertex="1">
          <mxGeometry x="220" y="460" width="128" height="128" as="geometry"/>
        </mxCell>
        <mxCell id="ZfdYoAjNMy2BQfxZGGwY-22" value="" style="shape=image;html=1;verticalAlign=top;verticalLabelPosition=bottom;labelBackgroundColor=#ffffff;imageAspect=0;aspect=fixed;image=https://cdn2.iconfinder.com/data/icons/business-process-1/512/value_chain-128.png" parent="1" vertex="1">
          <mxGeometry x="370" y="460" width="128" height="128" as="geometry"/>
        </mxCell>
        <mxCell id="ZfdYoAjNMy2BQfxZGGwY-23" value="" style="shape=image;html=1;verticalAlign=top;verticalLabelPosition=bottom;labelBackgroundColor=#ffffff;imageAspect=0;aspect=fixed;image=https://cdn2.iconfinder.com/data/icons/business-process-1/512/value_chain-128.png" parent="1" vertex="1">
          <mxGeometry x="520" y="460" width="128" height="128" as="geometry"/>
        </mxCell>
        <mxCell id="ZfdYoAjNMy2BQfxZGGwY-24" value="" style="shape=image;html=1;verticalAlign=top;verticalLabelPosition=bottom;labelBackgroundColor=#ffffff;imageAspect=0;aspect=fixed;image=https://cdn2.iconfinder.com/data/icons/business-process-1/512/value_chain-128.png" parent="1" vertex="1">
          <mxGeometry x="670" y="460" width="128" height="128" as="geometry"/>
        </mxCell>
        <mxCell id="ZfdYoAjNMy2BQfxZGGwY-25" value="" style="verticalLabelPosition=bottom;html=1;verticalAlign=top;align=center;strokeColor=none;fillColor=#00BEF2;shape=mxgraph.azure.user;" parent="1" vertex="1">
          <mxGeometry x="277.5" y="612" width="47.5" height="50" as="geometry"/>
        </mxCell>
        <mxCell id="ZfdYoAjNMy2BQfxZGGwY-27" value="" style="verticalLabelPosition=bottom;html=1;verticalAlign=top;align=center;strokeColor=none;fillColor=#333333;shape=mxgraph.azure.user;" parent="1" vertex="1">
          <mxGeometry x="472.5" y="612" width="47.5" height="50" as="geometry"/>
        </mxCell>
        <mxCell id="ZfdYoAjNMy2BQfxZGGwY-28" value="" style="edgeStyle=elbowEdgeStyle;elbow=horizontal;endArrow=classic;html=1;" parent="1" edge="1">
          <mxGeometry width="50" height="50" relative="1" as="geometry">
            <mxPoint x="301.5" y="560" as="sourcePoint"/>
            <mxPoint x="492.5" y="560" as="targetPoint"/>
            <Array as="points">
              <mxPoint x="351.5" y="510"/>
              <mxPoint x="411.5" y="510"/>
            </Array>
          </mxGeometry>
        </mxCell>
        <mxCell id="ZfdYoAjNMy2BQfxZGGwY-29" value="" style="rounded=0;comic=1;strokeWidth=2;endArrow=blockThin;html=1;fontFamily=Comic Sans MS;fontStyle=1;entryX=0.578;entryY=0.859;entryDx=0;entryDy=0;entryPerimeter=0;" parent="1" source="ZfdYoAjNMy2BQfxZGGwY-25" edge="1">
          <mxGeometry width="50" height="50" relative="1" as="geometry">
            <mxPoint x="232.5" y="732" as="sourcePoint"/>
            <mxPoint x="302.4839999999999" y="561.952" as="targetPoint"/>
          </mxGeometry>
        </mxCell>
        <mxCell id="ZfdYoAjNMy2BQfxZGGwY-31" value="读取请求" style="text;html=1;align=center;verticalAlign=middle;resizable=0;points=[];;labelBackgroundColor=#ffffff;" parent="ZfdYoAjNMy2BQfxZGGwY-29" vertex="1" connectable="0">
          <mxGeometry x="-0.0812" y="1" relative="1" as="geometry">
            <mxPoint as="offset"/>
          </mxGeometry>
        </mxCell>
        <mxCell id="ZfdYoAjNMy2BQfxZGGwY-30" value="读取授权" style="rounded=0;comic=1;strokeWidth=2;endArrow=blockThin;html=1;fontFamily=Comic Sans MS;fontStyle=1;entryX=0.5;entryY=0;entryDx=0;entryDy=0;entryPerimeter=0;exitX=1;exitY=0.813;exitDx=0;exitDy=0;exitPerimeter=0;" parent="1" source="ZfdYoAjNMy2BQfxZGGwY-22" target="ZfdYoAjNMy2BQfxZGGwY-27" edge="1">
          <mxGeometry width="50" height="50" relative="1" as="geometry">
            <mxPoint x="490" y="556" as="sourcePoint"/>
            <mxPoint x="312.48400000000004" y="571.952" as="targetPoint"/>
          </mxGeometry>
        </mxCell>
        <mxCell id="ZfdYoAjNMy2BQfxZGGwY-32" value="" style="endArrow=classic;html=1;entryX=1;entryY=0.5;entryDx=0;entryDy=0;" parent="1" target="ZfdYoAjNMy2BQfxZGGwY-2" edge="1">
          <mxGeometry width="50" height="50" relative="1" as="geometry">
            <mxPoint x="300" y="610" as="sourcePoint"/>
            <mxPoint x="220" y="420" as="targetPoint"/>
          </mxGeometry>
        </mxCell>
        <mxCell id="ZfdYoAjNMy2BQfxZGGwY-33" value="读取" style="text;html=1;align=center;verticalAlign=middle;resizable=0;points=[];;labelBackgroundColor=#ffffff;" parent="ZfdYoAjNMy2BQfxZGGwY-32" vertex="1" connectable="0">
          <mxGeometry x="0.2096" relative="1" as="geometry">
            <mxPoint x="20.74" y="28.94" as="offset"/>
          </mxGeometry>
        </mxCell>
        <mxCell id="HQIGVGm36c37AUolQZET-1" value="" style="group" vertex="1" connectable="0" parent="1">
          <mxGeometry x="500" y="240" width="170" height="240" as="geometry"/>
        </mxCell>
        <mxCell id="HQIGVGm36c37AUolQZET-2" value="" style="rounded=1;whiteSpace=wrap;html=1;" vertex="1" parent="HQIGVGm36c37AUolQZET-1">
          <mxGeometry x="30" y="120" width="100" height="100" as="geometry"/>
        </mxCell>
        <mxCell id="HQIGVGm36c37AUolQZET-7" value="DNS" style="text;html=1;strokeColor=none;fillColor=none;align=center;verticalAlign=middle;whiteSpace=wrap;rounded=0;" vertex="1" parent="HQIGVGm36c37AUolQZET-1">
          <mxGeometry x="48" y="130" width="64" height="20" as="geometry"/>
        </mxCell>
        <mxCell id="HQIGVGm36c37AUolQZET-8" value="联盟成员" style="text;html=1;strokeColor=none;fillColor=none;align=center;verticalAlign=middle;whiteSpace=wrap;rounded=0;" vertex="1" parent="HQIGVGm36c37AUolQZET-1">
          <mxGeometry x="53.25" y="220" width="53.5" height="20" as="geometry"/>
        </mxCell>
        <mxCell id="HQIGVGm36c37AUolQZET-9" value="" style="shape=image;verticalLabelPosition=bottom;labelBackgroundColor=#ffffff;verticalAlign=top;aspect=fixed;imageAspect=0;image=data:image/svg+xml,PHN2ZyB4bWxuczpkYz0iaHR0cDovL3B1cmwub3JnL2RjL2VsZW1lbnRzLzEuMS8iIHhtbG5zOmNjPSJodHRwOi8vY3JlYXRpdmVjb21tb25zLm9yZy9ucyMiIHhtbG5zOnJkZj0iaHR0cDovL3d3dy53My5vcmcvMTk5OS8wMi8yMi1yZGYtc3ludGF4LW5zIyIgeG1sbnM6c3ZnPSJodHRwOi8vd3d3LnczLm9yZy8yMDAwL3N2ZyIgeG1sbnM9Imh0dHA6Ly93d3cudzMub3JnLzIwMDAvc3ZnIiB4bWxuczp4bGluaz0iaHR0cDovL3d3dy53My5vcmcvMTk5OS94bGluayIgeG1sbnM6c29kaXBvZGk9Imh0dHA6Ly9zb2RpcG9kaS5zb3VyY2Vmb3JnZS5uZXQvRFREL3NvZGlwb2RpLTAuZHRkIiB4bWxuczppbmtzY2FwZT0iaHR0cDovL3d3dy5pbmtzY2FwZS5vcmcvbmFtZXNwYWNlcy9pbmtzY2FwZSIgdmVyc2lvbj0iMS4xIiBpZD0iTGF5ZXJfMSIgeD0iMHB4IiB5PSIwcHgiIHZpZXdCb3g9IjAgMCA1MS4zODk5OTkgMzguNDg3NjQ4IiB4bWw6c3BhY2U9InByZXNlcnZlIiBzb2RpcG9kaTpkb2NuYW1lPSJzYXBfYXBwaWNhdGlvbl9ydW50aW1lLnN2ZyIgd2lkdGg9IjUxLjM4OTk5OSIgaGVpZ2h0PSIzOC40ODc2NDgiIGlua3NjYXBlOnZlcnNpb249IjAuOTIuMyAoMjQwNTU0NiwgMjAxOC0wMy0xMSkiPjxtZXRhZGF0YSBpZD0ibWV0YWRhdGE1MjM1OCI+PHJkZjpSREY+PGNjOldvcmsgcmRmOmFib3V0PSIiPjxkYzpmb3JtYXQ+aW1hZ2Uvc3ZnK3htbDwvZGM6Zm9ybWF0PjxkYzp0eXBlIHJkZjpyZXNvdXJjZT0iaHR0cDovL3B1cmwub3JnL2RjL2RjbWl0eXBlL1N0aWxsSW1hZ2UiLz48ZGM6dGl0bGUvPjwvY2M6V29yaz48L3JkZjpSREY+PC9tZXRhZGF0YT48ZGVmcyBpZD0iZGVmczUyMzU2Ii8+PHNvZGlwb2RpOm5hbWVkdmlldyBwYWdlY29sb3I9IiNmZmZmZmYiIGJvcmRlcmNvbG9yPSIjNjY2NjY2IiBib3JkZXJvcGFjaXR5PSIxIiBvYmplY3R0b2xlcmFuY2U9IjEwIiBncmlkdG9sZXJhbmNlPSIxMCIgZ3VpZGV0b2xlcmFuY2U9IjEwIiBpbmtzY2FwZTpwYWdlb3BhY2l0eT0iMCIgaW5rc2NhcGU6cGFnZXNoYWRvdz0iMiIgaW5rc2NhcGU6d2luZG93LXdpZHRoPSIxOTIwIiBpbmtzY2FwZTp3aW5kb3ctaGVpZ2h0PSIxMDE3IiBpZD0ibmFtZWR2aWV3NTIzNTQiIHNob3dncmlkPSJmYWxzZSIgZml0LW1hcmdpbi10b3A9IjAiIGZpdC1tYXJnaW4tbGVmdD0iMCIgZml0LW1hcmdpbi1yaWdodD0iMCIgZml0LW1hcmdpbi1ib3R0b209IjAiIGlua3NjYXBlOnpvb209IjEuMDMwMzAzIiBpbmtzY2FwZTpjeD0iLTMwLjg5NSIgaW5rc2NhcGU6Y3k9Ii0xODYuNjQyMzUiIGlua3NjYXBlOndpbmRvdy14PSItOCIgaW5rc2NhcGU6d2luZG93LXk9Ii04IiBpbmtzY2FwZTp3aW5kb3ctbWF4aW1pemVkPSIxIiBpbmtzY2FwZTpjdXJyZW50LWxheWVyPSJMYXllcl8xIi8+JiN4YTsmI3hhOzxnIGlkPSJnNTIzNTEiIHRyYW5zZm9ybT0idHJhbnNsYXRlKC0zMjguMjcsLTE5NS42MikiPiYjeGE7CTxkZWZzIGlkPSJkZWZzNTIzMjgiPiYjeGE7CQk8cmVjdCBpZD0iU1ZHSURfM18iIHg9IjMyOC4yNjk5OSIgeT0iMTk1LjYyIiB3aWR0aD0iNTMuODMwMDAyIiBoZWlnaHQ9IjM5LjY2Ii8+JiN4YTsJPC9kZWZzPiYjeGE7CTxjbGlwUGF0aCBpZD0iU1ZHSURfNF8iPiYjeGE7CQk8dXNlIHhsaW5rOmhyZWY9IiNTVkdJRF8zXyIgc3R5bGU9Im92ZXJmbG93OnZpc2libGUiIGlkPSJ1c2U1MjMzMCIgeD0iMCIgeT0iMCIgd2lkdGg9IjEwMCUiIGhlaWdodD0iMTAwJSIvPiYjeGE7CTwvY2xpcFBhdGg+JiN4YTsJPGcgY2xpcC1wYXRoPSJ1cmwoI1NWR0lEXzRfKSIgaWQ9Imc1MjM0OSI+JiN4YTsJCTxkZWZzIGlkPSJkZWZzNTIzMzQiPiYjeGE7CQkJPHJlY3QgaWQ9IlNWR0lEXzVfIiB4PSIzMjguMjY5OTkiIHk9IjE5NS42MiIgd2lkdGg9IjUzLjgzMDAwMiIgaGVpZ2h0PSIzOS42NiIvPiYjeGE7CQk8L2RlZnM+JiN4YTsJCTxjbGlwUGF0aCBpZD0iU1ZHSURfNl8iPiYjeGE7CQkJPHVzZSB4bGluazpocmVmPSIjU1ZHSURfNV8iIHN0eWxlPSJvdmVyZmxvdzp2aXNpYmxlIiBpZD0idXNlNTIzMzYiIHg9IjAiIHk9IjAiIHdpZHRoPSIxMDAlIiBoZWlnaHQ9IjEwMCUiLz4mI3hhOwkJPC9jbGlwUGF0aD4mI3hhOwkJPHBhdGggc3R5bGU9ImZpbGw6IzAwOTJkMSIgZD0ibSAzNDUuNTksMjEwLjA2IGggLTIuMSBjIC0xLjMyLC0wLjA2IC0yLjQ2LDEuMDggLTIuNCwyLjQgdiA0Ljc5IGMgMCwwLjY2IDAuMjQsMS4yNiAwLjY2LDEuNzQgMC40OCwwLjQ4IDEuMDgsMC43MiAxLjc0LDAuNzIgaCAyLjEgbCAwLjk2LDIuMTYgLTEuNTYsMS41IGMgLTAuOSwwLjk2IC0wLjksMi40NiAwLDMuNDIgbCAzLjQ4LDMuNDEgYyAwLjQ4LDAuNDggMS4wOCwwLjcyIDEuNjgsMC43MiAwLjY2LDAgMS4yNiwtMC4yNCAxLjc0LC0wLjcyIGwgMS41LC0xLjU2IDIuMTYsMC45NiB2IDIuMSBjIDAsMC42NiAwLjI0LDEuMjYgMC43MiwxLjY4IDAuNDIsMC40OCAxLjAyLDAuNzggMS42OCwwLjcyIGggNC44NSBjIDAuNiwwLjA2IDEuMjYsLTAuMjQgMS42OCwtMC42NiAwLjQ4LC0wLjQ4IDAuNzIsLTEuMDggMC43MiwtMS43NCB2IC0yLjEgbCAyLjE2LC0wLjk2IDEuNSwxLjU2IGMgMC40OCwwLjQ4IDEuMDgsMC43MiAxLjc0LDAuNzIgMC42LDAgMS4yLC0wLjI0IDEuNjgsLTAuNzIgbCAzLjQyLC0zLjQ3IGMgMC45LC0wLjk2IDAuOSwtMi40IDAsLTMuMzYgbCAtMS41LC0xLjUgMC45NiwtMi4xNiBoIDIuMSBjIDAuNjYsMCAxLjI2LC0wLjI0IDEuNzQsLTAuNzIgMC40MiwtMC40OCAwLjY2LC0xLjA4IDAuNjYsLTEuNzQgdiAtNC43OSBjIDAsLTEuMzIgLTEuMDgsLTIuNDYgLTIuNDYsLTIuNCBoIC0yLjA0IGwgLTAuOSwtMi4xNiAxLjUsLTEuNTYgYyAwLjQyLC0wLjQyIDAuNjYsLTEuMDggMC42NiwtMS42OCAwLC0wLjY2IC0wLjI0LC0xLjI2IC0wLjY2LC0xLjY4IGwgLTMuNTQsLTMuNDcgYyAtMC40MiwtMC40MiAtMS4wMiwtMC42NiAtMS42MiwtMC42NiAtMC42NiwwIC0xLjI2LDAuMjQgLTEuNzQsMC42NiBsIC0xLjUsMS41IC0yLjE2LC0wLjkgdiAtMi4xIGMgMCwtMS4zMiAtMS4wOCwtMi40NiAtMi40NiwtMi40IGggLTQuNzkgYyAtMS4zMiwtMC4wNiAtMi40NiwxLjA4IC0yLjQsMi40IHYgMi4xIGwgLTIuMjIsMC45IC0xLjUsLTEuNSBjIC0wLjQyLC0wLjQyIC0xLjA4LC0wLjY2IC0xLjY4LC0wLjY2IC0wLjY2LDAgLTEuMjYsMC4yNCAtMS42OCwwLjY2IGwgLTMuNDgsMy40NyBjIC0wLjQyLDAuNDIgLTAuNjYsMS4wMiAtMC42NiwxLjY4IDAsMC42IDAuMjQsMS4yNiAwLjY2LDEuNzQgbCAxLjU2LDEuNSB6IG0gMTYuMzYsLTExLjIgdiAzLjc3IGwgNi4xMSwyLjIyIDIuNDYsLTIuNDYgMi4zNCwyLjI4IC0yLjQ2LDIuNTIgMi40Niw2LjA1IGggMy41NCB2IDMuMjQgaCAtMy41NCBsIC0yLjQ2LDYuMTEgMi40NiwyLjQ2IC0yLjI4LDIuMjggLTIuNjQsLTIuNyAtNS45OSwyLjc2IHYgMy41MyBoIC0zLjE4IHYgLTMuNTMgbCAtNS45OSwtMi43NiAtMi42NCwyLjc2IC0yLjI4LC0yLjM0IDIuNDYsLTIuNDYgLTIuMjIsLTYuMTEgaCAtMy43OCB2IC0zLjI0IGggMy43OCBsIDIuMjIsLTYuMTEgLTIuNDYsLTIuNDYgMi4yOCwtMi4yOCAyLjUyLDIuNDYgNi4xMSwtMi4yMiB2IC0zLjc3IHoiIGNsaXAtcGF0aD0idXJsKCNTVkdJRF82XykiIGlkPSJwYXRoNTIzMzkiIGlua3NjYXBlOmNvbm5lY3Rvci1jdXJ2YXR1cmU9IjAiLz4mI3hhOwkJPHBhdGggc3R5bGU9ImZpbGw6IzVhN2E5NCIgZD0ibSAzMzYuMywyMTQuOTEgaCAtNi40MSBjIC0yLjE2LDAgLTIuMTYsLTMuMjQgMCwtMy4yNCBoIDYuNDEgYyAyLjE2LDAuMDEgMi4xNiwzLjI0IDAsMy4yNCB6IiBjbGlwLXBhdGg9InVybCgjU1ZHSURfNl8pIiBpZD0icGF0aDUyMzQxIiBpbmtzY2FwZTpjb25uZWN0b3ItY3VydmF0dXJlPSIwIi8+JiN4YTsJCTxwYXRoIHN0eWxlPSJmaWxsOiM1YTdhOTQiIGQ9Im0gMzM5LjQ4LDIwNS4yNyBoIC02LjQxIGMgLTIuMSwwIC0yLjEsLTMuMTggMCwtMy4xOCBoIDYuNDEgYyAyLjE1LDAgMi4xNSwzLjE4IDAsMy4xOCB6IiBjbGlwLXBhdGg9InVybCgjU1ZHSURfNl8pIiBpZD0icGF0aDUyMzQzIiBpbmtzY2FwZTpjb25uZWN0b3ItY3VydmF0dXJlPSIwIi8+JiN4YTsJCTxwYXRoIHN0eWxlPSJmaWxsOiM1YTdhOTQiIGQ9Im0gMzM5LjQ4LDIyNC41NiBoIC0zLjI0IGMgLTIuMTYsMCAtMi4xNiwtMy4yNCAwLC0zLjI0IGggMy4yNCBjIDIuMTUsMCAyLjE1LDMuMjQgMCwzLjI0IHoiIGNsaXAtcGF0aD0idXJsKCNTVkdJRF82XykiIGlkPSJwYXRoNTIzNDUiIGlua3NjYXBlOmNvbm5lY3Rvci1jdXJ2YXR1cmU9IjAiLz4mI3hhOwkJPHBhdGggc3R5bGU9ImZpbGw6IzAwOTJkMSIgZD0ibSAzNTYuNDQsMjIxLjI2IGMgLTAuMywwIC0wLjU0LC0wLjA2IC0wLjcyLC0wLjI0IC0wLjI0LC0wLjE4IC0wLjMsLTAuNDggLTAuMywtMC43MiB2IC0xMC43OCBjIDAsLTAuMyAwLjA2LC0wLjU0IDAuMywtMC43OCAwLjE4LC0wLjE4IDAuNDIsLTAuMyAwLjcyLC0wLjMgMC4xOCwwIDAuMzYsMC4wNiAwLjU0LDAuMTIgbCAxMC43Myw1LjU3IGMgMC43MiwwLjQyIDAuNzIsMS40NCAwLDEuOCBsIC0xMC43Myw1LjIxIGMgLTAuMTgsMC4wNiAtMC4zNiwwLjEyIC0wLjU0LDAuMTIgeiIgY2xpcC1wYXRoPSJ1cmwoI1NWR0lEXzZfKSIgaWQ9InBhdGg1MjM0NyIgaW5rc2NhcGU6Y29ubmVjdG9yLWN1cnZhdHVyZT0iMCIvPiYjeGE7CTwvZz4mI3hhOzwvZz4mI3hhOzwvc3ZnPg==;" vertex="1" parent="HQIGVGm36c37AUolQZET-1">
          <mxGeometry x="49.5" y="160" width="51" height="38" as="geometry"/>
        </mxCell>
        <mxCell id="HQIGVGm36c37AUolQZET-16" value="" style="rounded=1;whiteSpace=wrap;html=1;" vertex="1" parent="1">
          <mxGeometry x="670" y="360" width="100" height="100" as="geometry"/>
        </mxCell>
        <mxCell id="HQIGVGm36c37AUolQZET-17" value="查询" style="text;html=1;strokeColor=none;fillColor=none;align=center;verticalAlign=middle;whiteSpace=wrap;rounded=0;" vertex="1" parent="1">
          <mxGeometry x="688" y="370" width="64" height="20" as="geometry"/>
        </mxCell>
        <mxCell id="HQIGVGm36c37AUolQZET-18" value="名片排名" style="text;html=1;strokeColor=none;fillColor=none;align=center;verticalAlign=middle;whiteSpace=wrap;rounded=0;" vertex="1" parent="1">
          <mxGeometry x="693.25" y="460" width="53.5" height="20" as="geometry"/>
        </mxCell>
        <mxCell id="HQIGVGm36c37AUolQZET-19" value="" style="shape=image;verticalLabelPosition=bottom;labelBackgroundColor=#ffffff;verticalAlign=top;aspect=fixed;imageAspect=0;image=data:image/svg+xml,PHN2ZyB4bWxuczpkYz0iaHR0cDovL3B1cmwub3JnL2RjL2VsZW1lbnRzLzEuMS8iIHhtbG5zOmNjPSJodHRwOi8vY3JlYXRpdmVjb21tb25zLm9yZy9ucyMiIHhtbG5zOnJkZj0iaHR0cDovL3d3dy53My5vcmcvMTk5OS8wMi8yMi1yZGYtc3ludGF4LW5zIyIgeG1sbnM6c3ZnPSJodHRwOi8vd3d3LnczLm9yZy8yMDAwL3N2ZyIgeG1sbnM9Imh0dHA6Ly93d3cudzMub3JnLzIwMDAvc3ZnIiB4bWxuczp4bGluaz0iaHR0cDovL3d3dy53My5vcmcvMTk5OS94bGluayIgeG1sbnM6c29kaXBvZGk9Imh0dHA6Ly9zb2RpcG9kaS5zb3VyY2Vmb3JnZS5uZXQvRFREL3NvZGlwb2RpLTAuZHRkIiB4bWxuczppbmtzY2FwZT0iaHR0cDovL3d3dy5pbmtzY2FwZS5vcmcvbmFtZXNwYWNlcy9pbmtzY2FwZSIgdmVyc2lvbj0iMS4xIiBpZD0iTGF5ZXJfMSIgeD0iMHB4IiB5PSIwcHgiIHZpZXdCb3g9IjAgMCA1MS4zODk5OTkgMzguNDg3NjQ4IiB4bWw6c3BhY2U9InByZXNlcnZlIiBzb2RpcG9kaTpkb2NuYW1lPSJzYXBfYXBwaWNhdGlvbl9ydW50aW1lLnN2ZyIgd2lkdGg9IjUxLjM4OTk5OSIgaGVpZ2h0PSIzOC40ODc2NDgiIGlua3NjYXBlOnZlcnNpb249IjAuOTIuMyAoMjQwNTU0NiwgMjAxOC0wMy0xMSkiPjxtZXRhZGF0YSBpZD0ibWV0YWRhdGE1MjM1OCI+PHJkZjpSREY+PGNjOldvcmsgcmRmOmFib3V0PSIiPjxkYzpmb3JtYXQ+aW1hZ2Uvc3ZnK3htbDwvZGM6Zm9ybWF0PjxkYzp0eXBlIHJkZjpyZXNvdXJjZT0iaHR0cDovL3B1cmwub3JnL2RjL2RjbWl0eXBlL1N0aWxsSW1hZ2UiLz48ZGM6dGl0bGUvPjwvY2M6V29yaz48L3JkZjpSREY+PC9tZXRhZGF0YT48ZGVmcyBpZD0iZGVmczUyMzU2Ii8+PHNvZGlwb2RpOm5hbWVkdmlldyBwYWdlY29sb3I9IiNmZmZmZmYiIGJvcmRlcmNvbG9yPSIjNjY2NjY2IiBib3JkZXJvcGFjaXR5PSIxIiBvYmplY3R0b2xlcmFuY2U9IjEwIiBncmlkdG9sZXJhbmNlPSIxMCIgZ3VpZGV0b2xlcmFuY2U9IjEwIiBpbmtzY2FwZTpwYWdlb3BhY2l0eT0iMCIgaW5rc2NhcGU6cGFnZXNoYWRvdz0iMiIgaW5rc2NhcGU6d2luZG93LXdpZHRoPSIxOTIwIiBpbmtzY2FwZTp3aW5kb3ctaGVpZ2h0PSIxMDE3IiBpZD0ibmFtZWR2aWV3NTIzNTQiIHNob3dncmlkPSJmYWxzZSIgZml0LW1hcmdpbi10b3A9IjAiIGZpdC1tYXJnaW4tbGVmdD0iMCIgZml0LW1hcmdpbi1yaWdodD0iMCIgZml0LW1hcmdpbi1ib3R0b209IjAiIGlua3NjYXBlOnpvb209IjEuMDMwMzAzIiBpbmtzY2FwZTpjeD0iLTMwLjg5NSIgaW5rc2NhcGU6Y3k9Ii0xODYuNjQyMzUiIGlua3NjYXBlOndpbmRvdy14PSItOCIgaW5rc2NhcGU6d2luZG93LXk9Ii04IiBpbmtzY2FwZTp3aW5kb3ctbWF4aW1pemVkPSIxIiBpbmtzY2FwZTpjdXJyZW50LWxheWVyPSJMYXllcl8xIi8+JiN4YTsmI3hhOzxnIGlkPSJnNTIzNTEiIHRyYW5zZm9ybT0idHJhbnNsYXRlKC0zMjguMjcsLTE5NS42MikiPiYjeGE7CTxkZWZzIGlkPSJkZWZzNTIzMjgiPiYjeGE7CQk8cmVjdCBpZD0iU1ZHSURfM18iIHg9IjMyOC4yNjk5OSIgeT0iMTk1LjYyIiB3aWR0aD0iNTMuODMwMDAyIiBoZWlnaHQ9IjM5LjY2Ii8+JiN4YTsJPC9kZWZzPiYjeGE7CTxjbGlwUGF0aCBpZD0iU1ZHSURfNF8iPiYjeGE7CQk8dXNlIHhsaW5rOmhyZWY9IiNTVkdJRF8zXyIgc3R5bGU9Im92ZXJmbG93OnZpc2libGUiIGlkPSJ1c2U1MjMzMCIgeD0iMCIgeT0iMCIgd2lkdGg9IjEwMCUiIGhlaWdodD0iMTAwJSIvPiYjeGE7CTwvY2xpcFBhdGg+JiN4YTsJPGcgY2xpcC1wYXRoPSJ1cmwoI1NWR0lEXzRfKSIgaWQ9Imc1MjM0OSI+JiN4YTsJCTxkZWZzIGlkPSJkZWZzNTIzMzQiPiYjeGE7CQkJPHJlY3QgaWQ9IlNWR0lEXzVfIiB4PSIzMjguMjY5OTkiIHk9IjE5NS42MiIgd2lkdGg9IjUzLjgzMDAwMiIgaGVpZ2h0PSIzOS42NiIvPiYjeGE7CQk8L2RlZnM+JiN4YTsJCTxjbGlwUGF0aCBpZD0iU1ZHSURfNl8iPiYjeGE7CQkJPHVzZSB4bGluazpocmVmPSIjU1ZHSURfNV8iIHN0eWxlPSJvdmVyZmxvdzp2aXNpYmxlIiBpZD0idXNlNTIzMzYiIHg9IjAiIHk9IjAiIHdpZHRoPSIxMDAlIiBoZWlnaHQ9IjEwMCUiLz4mI3hhOwkJPC9jbGlwUGF0aD4mI3hhOwkJPHBhdGggc3R5bGU9ImZpbGw6IzAwOTJkMSIgZD0ibSAzNDUuNTksMjEwLjA2IGggLTIuMSBjIC0xLjMyLC0wLjA2IC0yLjQ2LDEuMDggLTIuNCwyLjQgdiA0Ljc5IGMgMCwwLjY2IDAuMjQsMS4yNiAwLjY2LDEuNzQgMC40OCwwLjQ4IDEuMDgsMC43MiAxLjc0LDAuNzIgaCAyLjEgbCAwLjk2LDIuMTYgLTEuNTYsMS41IGMgLTAuOSwwLjk2IC0wLjksMi40NiAwLDMuNDIgbCAzLjQ4LDMuNDEgYyAwLjQ4LDAuNDggMS4wOCwwLjcyIDEuNjgsMC43MiAwLjY2LDAgMS4yNiwtMC4yNCAxLjc0LC0wLjcyIGwgMS41LC0xLjU2IDIuMTYsMC45NiB2IDIuMSBjIDAsMC42NiAwLjI0LDEuMjYgMC43MiwxLjY4IDAuNDIsMC40OCAxLjAyLDAuNzggMS42OCwwLjcyIGggNC44NSBjIDAuNiwwLjA2IDEuMjYsLTAuMjQgMS42OCwtMC42NiAwLjQ4LC0wLjQ4IDAuNzIsLTEuMDggMC43MiwtMS43NCB2IC0yLjEgbCAyLjE2LC0wLjk2IDEuNSwxLjU2IGMgMC40OCwwLjQ4IDEuMDgsMC43MiAxLjc0LDAuNzIgMC42LDAgMS4yLC0wLjI0IDEuNjgsLTAuNzIgbCAzLjQyLC0zLjQ3IGMgMC45LC0wLjk2IDAuOSwtMi40IDAsLTMuMzYgbCAtMS41LC0xLjUgMC45NiwtMi4xNiBoIDIuMSBjIDAuNjYsMCAxLjI2LC0wLjI0IDEuNzQsLTAuNzIgMC40MiwtMC40OCAwLjY2LC0xLjA4IDAuNjYsLTEuNzQgdiAtNC43OSBjIDAsLTEuMzIgLTEuMDgsLTIuNDYgLTIuNDYsLTIuNCBoIC0yLjA0IGwgLTAuOSwtMi4xNiAxLjUsLTEuNTYgYyAwLjQyLC0wLjQyIDAuNjYsLTEuMDggMC42NiwtMS42OCAwLC0wLjY2IC0wLjI0LC0xLjI2IC0wLjY2LC0xLjY4IGwgLTMuNTQsLTMuNDcgYyAtMC40MiwtMC40MiAtMS4wMiwtMC42NiAtMS42MiwtMC42NiAtMC42NiwwIC0xLjI2LDAuMjQgLTEuNzQsMC42NiBsIC0xLjUsMS41IC0yLjE2LC0wLjkgdiAtMi4xIGMgMCwtMS4zMiAtMS4wOCwtMi40NiAtMi40NiwtMi40IGggLTQuNzkgYyAtMS4zMiwtMC4wNiAtMi40NiwxLjA4IC0yLjQsMi40IHYgMi4xIGwgLTIuMjIsMC45IC0xLjUsLTEuNSBjIC0wLjQyLC0wLjQyIC0xLjA4LC0wLjY2IC0xLjY4LC0wLjY2IC0wLjY2LDAgLTEuMjYsMC4yNCAtMS42OCwwLjY2IGwgLTMuNDgsMy40NyBjIC0wLjQyLDAuNDIgLTAuNjYsMS4wMiAtMC42NiwxLjY4IDAsMC42IDAuMjQsMS4yNiAwLjY2LDEuNzQgbCAxLjU2LDEuNSB6IG0gMTYuMzYsLTExLjIgdiAzLjc3IGwgNi4xMSwyLjIyIDIuNDYsLTIuNDYgMi4zNCwyLjI4IC0yLjQ2LDIuNTIgMi40Niw2LjA1IGggMy41NCB2IDMuMjQgaCAtMy41NCBsIC0yLjQ2LDYuMTEgMi40NiwyLjQ2IC0yLjI4LDIuMjggLTIuNjQsLTIuNyAtNS45OSwyLjc2IHYgMy41MyBoIC0zLjE4IHYgLTMuNTMgbCAtNS45OSwtMi43NiAtMi42NCwyLjc2IC0yLjI4LC0yLjM0IDIuNDYsLTIuNDYgLTIuMjIsLTYuMTEgaCAtMy43OCB2IC0zLjI0IGggMy43OCBsIDIuMjIsLTYuMTEgLTIuNDYsLTIuNDYgMi4yOCwtMi4yOCAyLjUyLDIuNDYgNi4xMSwtMi4yMiB2IC0zLjc3IHoiIGNsaXAtcGF0aD0idXJsKCNTVkdJRF82XykiIGlkPSJwYXRoNTIzMzkiIGlua3NjYXBlOmNvbm5lY3Rvci1jdXJ2YXR1cmU9IjAiLz4mI3hhOwkJPHBhdGggc3R5bGU9ImZpbGw6IzVhN2E5NCIgZD0ibSAzMzYuMywyMTQuOTEgaCAtNi40MSBjIC0yLjE2LDAgLTIuMTYsLTMuMjQgMCwtMy4yNCBoIDYuNDEgYyAyLjE2LDAuMDEgMi4xNiwzLjI0IDAsMy4yNCB6IiBjbGlwLXBhdGg9InVybCgjU1ZHSURfNl8pIiBpZD0icGF0aDUyMzQxIiBpbmtzY2FwZTpjb25uZWN0b3ItY3VydmF0dXJlPSIwIi8+JiN4YTsJCTxwYXRoIHN0eWxlPSJmaWxsOiM1YTdhOTQiIGQ9Im0gMzM5LjQ4LDIwNS4yNyBoIC02LjQxIGMgLTIuMSwwIC0yLjEsLTMuMTggMCwtMy4xOCBoIDYuNDEgYyAyLjE1LDAgMi4xNSwzLjE4IDAsMy4xOCB6IiBjbGlwLXBhdGg9InVybCgjU1ZHSURfNl8pIiBpZD0icGF0aDUyMzQzIiBpbmtzY2FwZTpjb25uZWN0b3ItY3VydmF0dXJlPSIwIi8+JiN4YTsJCTxwYXRoIHN0eWxlPSJmaWxsOiM1YTdhOTQiIGQ9Im0gMzM5LjQ4LDIyNC41NiBoIC0zLjI0IGMgLTIuMTYsMCAtMi4xNiwtMy4yNCAwLC0zLjI0IGggMy4yNCBjIDIuMTUsMCAyLjE1LDMuMjQgMCwzLjI0IHoiIGNsaXAtcGF0aD0idXJsKCNTVkdJRF82XykiIGlkPSJwYXRoNTIzNDUiIGlua3NjYXBlOmNvbm5lY3Rvci1jdXJ2YXR1cmU9IjAiLz4mI3hhOwkJPHBhdGggc3R5bGU9ImZpbGw6IzAwOTJkMSIgZD0ibSAzNTYuNDQsMjIxLjI2IGMgLTAuMywwIC0wLjU0LC0wLjA2IC0wLjcyLC0wLjI0IC0wLjI0LC0wLjE4IC0wLjMsLTAuNDggLTAuMywtMC43MiB2IC0xMC43OCBjIDAsLTAuMyAwLjA2LC0wLjU0IDAuMywtMC43OCAwLjE4LC0wLjE4IDAuNDIsLTAuMyAwLjcyLC0wLjMgMC4xOCwwIDAuMzYsMC4wNiAwLjU0LDAuMTIgbCAxMC43Myw1LjU3IGMgMC43MiwwLjQyIDAuNzIsMS40NCAwLDEuOCBsIC0xMC43Myw1LjIxIGMgLTAuMTgsMC4wNiAtMC4zNiwwLjEyIC0wLjU0LDAuMTIgeiIgY2xpcC1wYXRoPSJ1cmwoI1NWR0lEXzZfKSIgaWQ9InBhdGg1MjM0NyIgaW5rc2NhcGU6Y29ubmVjdG9yLWN1cnZhdHVyZT0iMCIvPiYjeGE7CTwvZz4mI3hhOzwvZz4mI3hhOzwvc3ZnPg==;" vertex="1" parent="1">
          <mxGeometry x="689.5" y="400" width="51" height="38" as="geometry"/>
        </mxCell>
      </root>
    </mxGraphModel>
  </diagram>
</mxfile>
